<?xml version="1.0" encoding="UTF-8" standalone="no"?><!DOCTYPE svg PUBLIC "-//W3C//DTD SVG 1.1//EN" "http://www.w3.org/Graphics/SVG/1.1/DTD/svg11.dtd"><svg width="100%" height="100%" viewBox="0 0 4267 4267" version="1.1" xmlns="http://www.w3.org/2000/svg" xmlns:xlink="http://www.w3.org/1999/xlink" xml:space="preserve" xmlns:serif="http://www.serif.com/" style="fill-rule:evenodd;clip-rule:evenodd;stroke-linecap:round;stroke-linejoin:round;stroke-miterlimit:1.5;"><rect id="Add-Dataset" serif:id="Add Dataset" x="0" y="0" width="4266.67" height="4266.67" style="fill:none;"/><g><path d="M3491.67,1125l-833.334,-833.333l-1466.67,-0c-229.965,-0 -416.667,186.702 -416.667,416.666l0,2850c0,229.965 186.702,416.667 416.667,416.667l1883.33,0c229.965,0 416.667,-186.702 416.667,-416.667l-0,-2433.33Z" style="fill:#fff;"/><path d="M3491.67,1125l-833.334,-833.333l-1466.67,-0c-229.965,-0 -416.667,186.702 -416.667,416.666l0,2850c0,229.965 186.702,416.667 416.667,416.667l1883.33,0c229.965,0 416.667,-186.702 416.667,-416.667l-0,-2433.33Zm-145.834,60.406l0,2372.93c0,149.477 -121.356,270.834 -270.833,270.834l-1883.33,-0c-149.477,-0 -270.834,-121.357 -270.834,-270.834c0,0 0,-2850 0,-2850c0,-149.477 121.357,-270.833 270.834,-270.833l1406.26,0l747.906,747.906Z" style="fill:#6b6b6b;"/><path d="M3222.92,1335.42l-762.5,-762.5l-0,658.333c-0,27.627 10.974,54.122 30.509,73.657c19.535,19.535 46.031,30.51 73.657,30.51c208.718,-0 658.334,-0 658.334,-0Z" style="fill:#6b6b6b;"/><g><path d="M1425,1850l1416.67,0" style="fill:none;stroke:#6b6b6b;stroke-width:208.33px;"/><path d="M1425,2312.5l1416.67,0" style="fill:none;stroke:#6b6b6b;stroke-width:208.33px;"/><path d="M1425,2775l1416.67,0" style="fill:none;stroke:#6b6b6b;stroke-width:208.33px;"/><path d="M1425,3237.5l1416.67,0" style="fill:none;stroke:#6b6b6b;stroke-width:208.33px;"/></g></g><g><circle cx="3293.75" cy="3293.75" r="681.25" style="fill:#00d742;"/><path d="M3293.75,2612.5c375.992,0 681.25,305.258 681.25,681.25c0,375.992 -305.258,681.25 -681.25,681.25c-375.992,0 -681.25,-305.258 -681.25,-681.25c0,-375.992 305.258,-681.25 681.25,-681.25Zm0,145.833c295.505,0 535.417,239.912 535.417,535.417c-0,295.505 -239.912,535.417 -535.417,535.417c-295.505,-0 -535.417,-239.912 -535.417,-535.417c0,-295.505 239.912,-535.417 535.417,-535.417Z" style="fill:#00a566;"/><g><path d="M3293.75,2975l0,637.5" style="fill:none;stroke:#fff;stroke-width:145.83px;"/><path d="M2975,3293.75l637.5,0" style="fill:none;stroke:#fff;stroke-width:145.83px;"/></g></g></svg>