<?xml version="1.0" encoding="UTF-8" standalone="no"?><!DOCTYPE svg PUBLIC "-//W3C//DTD SVG 1.1//EN" "http://www.w3.org/Graphics/SVG/1.1/DTD/svg11.dtd"><svg width="100%" height="100%" viewBox="0 0 4267 4267" version="1.1" xmlns="http://www.w3.org/2000/svg" xmlns:xlink="http://www.w3.org/1999/xlink" xml:space="preserve" xmlns:serif="http://www.serif.com/" style="fill-rule:evenodd;clip-rule:evenodd;stroke-linecap:round;stroke-linejoin:round;stroke-miterlimit:1.5;"><rect id="Critical" x="0" y="-0" width="4266.67" height="4266.67" style="fill:none;"/><path d="M1380.47,524.097c39.07,-39.07 92.06,-61.019 147.313,-61.019c248.328,-0 962.768,-0 1211.1,-0c55.254,0 108.244,21.949 147.314,61.019c175.594,175.595 680.78,680.78 856.374,856.375c39.07,39.07 61.02,92.06 61.02,147.313l-0,1211.1c-0,55.254 -21.95,108.244 -61.02,147.314c-175.594,175.594 -680.78,680.78 -856.374,856.374c-39.07,39.07 -92.06,61.02 -147.314,61.02c-248.328,-0 -962.768,-0 -1211.1,-0c-55.253,-0 -108.243,-21.95 -147.313,-61.02c-175.595,-175.594 -680.78,-680.78 -856.375,-856.374c-39.07,-39.07 -61.019,-92.06 -61.019,-147.314c-0,-248.328 -0,-962.768 -0,-1211.1c0,-55.253 21.949,-108.243 61.019,-147.313c175.595,-175.595 680.78,-680.78 856.375,-856.375Z" style="fill:#e33419;"/><path d="M1277.35,420.978l-856.374,856.374c-66.419,66.419 -103.733,156.503 -103.733,250.433c-0,248.328 -0,962.768 -0,1211.1c-0,93.931 37.314,184.015 103.733,250.434c175.594,175.594 680.779,680.78 856.374,856.374c66.419,66.419 156.503,103.733 250.433,103.733c248.328,0 962.768,0 1211.1,0c93.931,-0 184.015,-37.314 250.434,-103.733c175.594,-175.594 680.78,-680.78 856.374,-856.374c66.419,-66.419 103.733,-156.503 103.733,-250.434c0,-248.328 0,-962.768 0,-1211.1c-0,-93.93 -37.314,-184.014 -103.733,-250.433c-175.594,-175.595 -680.78,-680.78 -856.374,-856.374c-66.419,-66.419 -156.503,-103.733 -250.434,-103.733c-248.328,-0 -962.768,-0 -1211.1,-0c-93.93,-0 -184.014,37.314 -250.433,103.733Zm103.12,103.119c39.07,-39.07 92.06,-61.019 147.313,-61.019c248.328,-0 962.768,-0 1211.1,-0c55.254,0 108.244,21.949 147.314,61.019c175.594,175.595 680.78,680.78 856.374,856.375c39.07,39.07 61.02,92.06 61.02,147.313c-0,248.328 -0,962.768 -0,1211.1c-0,55.254 -21.95,108.244 -61.02,147.314c-175.594,175.594 -680.78,680.78 -856.374,856.374c-39.07,39.07 -92.06,61.02 -147.314,61.02c-248.328,-0 -962.768,-0 -1211.1,-0c-55.253,-0 -108.243,-21.95 -147.313,-61.02c-175.595,-175.594 -680.78,-680.78 -856.375,-856.374c-39.07,-39.07 -61.019,-92.06 -61.019,-147.314c-0,-248.328 -0,-962.768 -0,-1211.1c0,-55.253 21.949,-108.243 61.019,-147.313c175.595,-175.595 680.78,-680.78 856.375,-856.375Z" style="fill:#991307;"/><g><path d="M2133.33,1391.29l0,916.979" style="fill:none;stroke:#fff;stroke-width:416.67px;"/><path d="M2133.33,2845.03l0,30.35" style="fill:none;stroke:#fff;stroke-width:416.67px;"/></g></svg>