<?xml version="1.0" encoding="UTF-8" standalone="no"?><!DOCTYPE svg PUBLIC "-//W3C//DTD SVG 1.1//EN" "http://www.w3.org/Graphics/SVG/1.1/DTD/svg11.dtd"><svg width="100%" height="100%" viewBox="0 0 4267 4267" version="1.1" xmlns="http://www.w3.org/2000/svg" xmlns:xlink="http://www.w3.org/1999/xlink" xml:space="preserve" xmlns:serif="http://www.serif.com/" style="fill-rule:evenodd;clip-rule:evenodd;stroke-linejoin:round;stroke-miterlimit:2;"><rect id="Cross-Out" serif:id="Cross Out" x="-0" y="0" width="4266.67" height="4266.67" style="fill:none;"/><g><path d="M1691.39,2173.52l-722.883,722.883c-121.958,121.958 -121.958,319.985 -0,441.942c121.957,121.957 319.984,121.957 441.941,0l722.883,-722.883l722.883,722.883c121.957,121.957 319.985,121.957 441.942,0c121.957,-121.957 121.957,-319.984 0,-441.942l-722.883,-722.883l722.883,-722.883c121.957,-121.957 121.957,-319.984 0,-441.941c-121.957,-121.957 -319.985,-121.957 -441.942,-0l-722.883,722.883l-722.883,-722.883c-121.957,-121.957 -319.984,-121.957 -441.941,-0c-121.958,121.957 -121.958,319.984 -0,441.941l722.883,722.883Z" style="fill:#ff4939;"/><path d="M1485.15,2173.52c-199.703,199.703 -619.763,619.764 -619.763,619.764c-178.871,178.87 -178.871,469.31 -0,648.181c178.87,178.87 469.311,178.87 648.181,-0c0,-0 619.763,-619.763 619.763,-619.763c0,-0 619.764,619.763 619.764,619.763c178.87,178.87 469.31,178.87 648.181,-0c178.87,-178.871 178.87,-469.311 -0,-648.181c-0,-0 -420.061,-420.061 -619.763,-619.764c199.702,-199.702 619.763,-619.763 619.763,-619.763c178.87,-178.87 178.87,-469.311 -0,-648.181c-178.871,-178.871 -469.311,-178.871 -648.181,-0c-0,-0 -619.764,619.763 -619.764,619.763c0,0 -619.763,-619.763 -619.763,-619.763c-178.87,-178.871 -469.311,-178.871 -648.181,-0c-178.871,178.87 -178.871,469.311 -0,648.181l619.763,619.763Zm206.24,0l-722.883,722.883c-121.958,121.958 -121.958,319.985 -0,441.942c121.957,121.957 319.984,121.957 441.941,0l722.883,-722.883l722.883,722.883c121.957,121.957 319.985,121.957 441.942,0c121.957,-121.957 121.957,-319.984 0,-441.942l-722.883,-722.883l722.883,-722.883c121.957,-121.957 121.957,-319.984 0,-441.941c-121.957,-121.957 -319.985,-121.957 -441.942,-0l-722.883,722.883l-722.883,-722.883c-121.957,-121.957 -319.984,-121.957 -441.941,-0c-121.958,121.957 -121.958,319.984 -0,441.941l722.883,722.883Z" style="fill:#bd361c;"/></g></svg>