<?xml version="1.0" encoding="UTF-8" standalone="no"?><!DOCTYPE svg PUBLIC "-//W3C//DTD SVG 1.1//EN" "http://www.w3.org/Graphics/SVG/1.1/DTD/svg11.dtd"><svg width="100%" height="100%" viewBox="0 0 4267 4267" version="1.1" xmlns="http://www.w3.org/2000/svg" xmlns:xlink="http://www.w3.org/1999/xlink" xml:space="preserve" xmlns:serif="http://www.serif.com/" style="fill-rule:evenodd;clip-rule:evenodd;stroke-linejoin:round;stroke-miterlimit:2;"><rect id="Export" x="0" y="0" width="4266.67" height="4266.67" style="fill:none;"/><g><path d="M3837.73,2583.07c-0,-230.098 -186.811,-416.909 -416.909,-416.909l-2574.97,0c-230.098,0 -416.909,186.811 -416.909,416.909l-0,833.818c-0,230.098 186.811,416.909 416.909,416.909l2574.97,-0c230.098,-0 416.909,-186.811 416.909,-416.909l-0,-833.818Z" style="fill:#fff;"/><path d="M3983.56,2583.07c0,-310.586 -252.156,-562.742 -562.742,-562.742c-0,-0 -2574.97,-0 -2574.97,-0c-310.586,-0 -562.742,252.156 -562.742,562.742c-0,0 -0,833.818 -0,833.818c-0,310.586 252.156,562.742 562.742,562.742l2574.97,0c310.586,0 562.742,-252.156 562.742,-562.742c0,-0 0,-833.818 0,-833.818Zm-145.833,0c-0,-230.098 -186.811,-416.909 -416.909,-416.909l-2574.97,0c-230.098,0 -416.909,186.811 -416.909,416.909l-0,833.818c-0,230.098 186.811,416.909 416.909,416.909l2574.97,-0c230.098,-0 416.909,-186.811 416.909,-416.909l-0,-833.818Z" style="fill:#6b6b6b;"/><path d="M2440.06,2937.59l-613.445,0l0,-1418.88l-573.543,0l880.265,-1093.71l880.265,1093.71l-573.542,0l-0,1418.88Z" style="fill:#fff;"/><path d="M2440.06,3073.86c75.262,0 136.274,-61.012 136.274,-136.274l-0,-1282.6c-0,0 437.268,0 437.268,0c52.457,0 100.257,-30.109 122.911,-77.422c22.654,-47.313 16.14,-103.429 -16.75,-144.295l-880.265,-1093.71c-25.868,-32.14 -64.904,-50.831 -106.161,-50.831c-41.257,-0 -80.293,18.691 -106.161,50.831l-880.264,1093.71c-32.891,40.866 -39.405,96.982 -16.751,144.295c22.654,47.313 70.454,77.422 122.911,77.422l437.269,0c0,0 0,1282.6 0,1282.6c0,75.262 61.012,136.274 136.274,136.274l613.445,0Zm-0,-136.274l-613.445,0l0,-1418.88l-573.543,0l880.265,-1093.71l880.265,1093.71l-573.542,0l-0,1418.88Z" style="fill:#6b6b6b;"/></g></svg>