<?xml version="1.0" encoding="UTF-8" standalone="no"?><!DOCTYPE svg PUBLIC "-//W3C//DTD SVG 1.1//EN" "http://www.w3.org/Graphics/SVG/1.1/DTD/svg11.dtd"><svg width="100%" height="100%" viewBox="0 0 4267 4267" version="1.1" xmlns="http://www.w3.org/2000/svg" xmlns:xlink="http://www.w3.org/1999/xlink" xml:space="preserve" xmlns:serif="http://www.serif.com/" style="fill-rule:evenodd;clip-rule:evenodd;stroke-linejoin:round;stroke-miterlimit:2;"><rect id="Export" x="0" y="0" width="4266.67" height="4266.67" style="fill:none;"/><g><path d="M3837.73,1277.2c-0,-470.341 -381.858,-852.198 -852.198,-852.198l-1704.4,-0c-470.341,-0 -852.198,381.857 -852.198,852.198l-0,1704.4c-0,470.341 381.857,852.198 852.198,852.198l1704.4,-0c470.34,-0 852.198,-381.857 852.198,-852.198l-0,-1704.4Z" style="fill:#d7beff;"/><path d="M3983.56,1277.2c0,-550.828 -447.203,-998.031 -998.031,-998.031c-0,-0 -1704.4,-0 -1704.4,-0c-550.828,-0 -998.031,447.203 -998.031,998.031c-0,0 -0,1704.4 -0,1704.4c-0,550.828 447.203,998.031 998.031,998.031l1704.4,0c550.828,0 998.031,-447.203 998.031,-998.031c0,-0 0,-1704.4 0,-1704.4Zm-145.833,0c-0,-470.341 -381.858,-852.198 -852.198,-852.198l-1704.4,-0c-470.341,-0 -852.198,381.857 -852.198,852.198l-0,1704.4c-0,470.341 381.857,852.198 852.198,852.198l1704.4,-0c470.34,-0 852.198,-381.857 852.198,-852.198l-0,-1704.4Z" style="fill:#6700c3;"/><path d="M2482.24,3323.88l-697.816,-0l0,-1144.84l-652.425,-0l1001.33,-1244.14l1001.33,1244.14l-652.426,-0l0,1144.84Z" style="fill:#fff;"/><path d="M2482.24,3472.8c82.246,0 148.919,-66.673 148.919,-148.918l-0,-995.921c-0,0 503.507,0 503.507,0c57.324,0 109.56,-32.903 134.316,-84.606c24.756,-51.703 17.637,-113.026 -18.305,-157.683l-1001.33,-1244.14c-28.269,-35.122 -70.926,-55.547 -116.012,-55.547c-45.085,-0 -87.743,20.425 -116.011,55.547l-1001.33,1244.14c-35.942,44.657 -43.06,105.98 -18.304,157.683c24.756,51.703 76.991,84.606 134.316,84.606l503.507,0c-0,309.968 -0,995.921 -0,995.921c-0,82.245 66.673,148.918 148.918,148.918l697.816,0Zm0,-148.918l-697.816,-0l0,-1144.84l-652.425,-0l1001.33,-1244.14l1001.33,1244.14l-652.426,-0l0,1144.84Z" style="fill:#6700c3;"/></g></svg>