<?xml version="1.0" encoding="UTF-8" standalone="no"?><!DOCTYPE svg PUBLIC "-//W3C//DTD SVG 1.1//EN" "http://www.w3.org/Graphics/SVG/1.1/DTD/svg11.dtd"><svg width="100%" height="100%" viewBox="0 0 4267 4267" version="1.1" xmlns="http://www.w3.org/2000/svg" xmlns:xlink="http://www.w3.org/1999/xlink" xml:space="preserve" xmlns:serif="http://www.serif.com/" style="fill-rule:evenodd;clip-rule:evenodd;stroke-linecap:round;stroke-linejoin:round;stroke-miterlimit:1.5;"><rect id="Generate" x="0" y="0" width="4266.67" height="4266.67" style="fill:none;"/><path d="M1098.26,3082.92l105.904,-0l-0,749.085c-0,52.35 32.621,99.154 81.735,117.274c49.114,18.119 104.317,3.714 138.315,-36.093c274.759,-321.701 709.116,-830.266 709.116,-830.266l1035.07,-0c378.483,-0 685.763,-307.28 685.763,-685.763l-0,-1371.53c-0,-378.483 -307.28,-685.763 -685.763,-685.763l-2070.14,0c-378.483,0 -685.763,307.28 -685.763,685.763l0,1371.53c0,378.483 307.28,685.763 685.763,685.763Z" style="fill:#fff;"/><path d="M1098.26,3082.92l105.904,-0l-0,749.085c-0,52.35 32.621,99.154 81.735,117.274c49.114,18.119 104.317,3.714 138.315,-36.093c274.759,-321.701 709.116,-830.266 709.116,-830.266l1035.07,-0c378.483,-0 685.763,-307.28 685.763,-685.763l-0,-1371.53c-0,-378.483 -307.28,-685.763 -685.763,-685.763l-2070.14,0c-378.483,0 -685.763,307.28 -685.763,685.763l0,1371.53c0,378.483 307.28,685.763 685.763,685.763Zm251.737,692.614l0,-692.614c0,-80.542 -65.292,-145.833 -145.833,-145.833l-105.904,-0c-297.995,-0 -539.93,-241.935 -539.93,-539.93c0,0 0,-1371.53 0,-1371.53c0,-297.995 241.935,-539.929 539.93,-539.929c-0,-0 2070.14,-0 2070.14,-0c297.995,-0 539.929,241.934 539.929,539.929c0,0 0,1371.53 0,1371.53c0,297.995 -241.934,539.93 -539.929,539.93l-1035.07,-0c-42.662,-0 -83.185,18.681 -110.892,51.122l-672.441,787.325Z" style="fill:#6b6b6b;"/><g><path d="M1216.67,1217.35l1833.33,-0" style="fill:none;stroke:#6b6b6b;stroke-width:208.33px;"/><path d="M1216.67,1779.85l1833.33,-0" style="fill:none;stroke:#6b6b6b;stroke-width:208.33px;"/><path d="M1216.67,2342.35l1833.33,-0" style="fill:none;stroke:#6b6b6b;stroke-width:208.33px;"/></g></svg>