<?xml version="1.0" encoding="UTF-8" standalone="no"?><!DOCTYPE svg PUBLIC "-//W3C//DTD SVG 1.1//EN" "http://www.w3.org/Graphics/SVG/1.1/DTD/svg11.dtd"><svg width="100%" height="100%" viewBox="0 0 1024 1024" version="1.1" xmlns="http://www.w3.org/2000/svg" xmlns:xlink="http://www.w3.org/1999/xlink" xml:space="preserve" xmlns:serif="http://www.serif.com/" style="fill-rule:evenodd;clip-rule:evenodd;stroke-linecap:round;stroke-linejoin:round;stroke-miterlimit:1.5;"><rect id="Generate" x="0" y="0" width="1024" height="1024" style="fill:none;"/><path d="M263.583,739.901l25.417,0l0,179.781c-0,12.564 7.829,23.797 19.616,28.145c11.788,4.349 25.036,0.892 33.196,-8.662c65.942,-77.208 170.188,-199.264 170.188,-199.264l248.417,0c90.836,0 164.583,-73.747 164.583,-164.583l0,-329.166c0,-90.836 -73.747,-164.583 -164.583,-164.583l-496.834,0c-90.836,0 -164.583,73.747 -164.583,164.583l-0,329.166c-0,90.836 73.747,164.583 164.583,164.583Z" style="fill:#fff;"/><path d="M263.583,739.901l25.417,0l0,179.781c-0,12.564 7.829,23.797 19.616,28.145c11.788,4.349 25.036,0.892 33.196,-8.662c65.942,-77.208 170.188,-199.264 170.188,-199.264l248.417,0c90.836,0 164.583,-73.747 164.583,-164.583l0,-329.166c0,-90.836 -73.747,-164.583 -164.583,-164.583l-496.834,0c-90.836,0 -164.583,73.747 -164.583,164.583l-0,329.166c-0,90.836 73.747,164.583 164.583,164.583Zm60.417,166.228l0,-166.228c0,-19.33 -15.67,-35 -35,-35l-25.417,0c-71.519,0 -129.583,-58.064 -129.583,-129.583c0,0 0,-329.166 0,-329.166c0,-71.519 58.064,-129.583 129.583,-129.583c0,0 496.834,0 496.834,0c71.519,0 129.583,58.064 129.583,129.583c0,0 0,329.166 0,329.166c0,71.519 -58.064,129.583 -129.583,129.583l-248.417,0c-10.239,0 -19.964,4.484 -26.614,12.27l-161.386,188.958Z" style="fill:#6b6b6b;"/><g><path d="M292,292.164l440,0" style="fill:none;stroke:#6b6b6b;stroke-width:35px;"/><path d="M292,380.11l440,-0" style="fill:none;stroke:#6b6b6b;stroke-width:35px;"/><path d="M292,468.055l440,-0" style="fill:none;stroke:#6b6b6b;stroke-width:35px;"/><path d="M292,556l440,0" style="fill:none;stroke:#6b6b6b;stroke-width:35px;"/></g></svg>