<?xml version="1.0" encoding="UTF-8" standalone="no"?><!DOCTYPE svg PUBLIC "-//W3C//DTD SVG 1.1//EN" "http://www.w3.org/Graphics/SVG/1.1/DTD/svg11.dtd"><svg width="100%" height="100%" viewBox="0 0 4267 4267" version="1.1" xmlns="http://www.w3.org/2000/svg" xmlns:xlink="http://www.w3.org/1999/xlink" xml:space="preserve" xmlns:serif="http://www.serif.com/" style="fill-rule:evenodd;clip-rule:evenodd;stroke-linejoin:round;stroke-miterlimit:2;"><rect id="Hugging-Face" serif:id="Hugging Face" x="0" y="0" width="4266.67" height="4266.67" style="fill:none;"/><g><path d="M2122.87,3508.87c803.294,0 1454.5,-651.201 1454.5,-1454.5c-0,-803.298 -651.205,-1454.5 -1454.5,-1454.5c-803.297,-0 -1454.5,651.2 -1454.5,1454.5c0,803.297 651.201,1454.5 1454.5,1454.5Z" style="fill:#ffd21e;fill-rule:nonzero;"/><path d="M3577.37,2054.37c-0,-803.298 -651.205,-1454.5 -1454.5,-1454.5c-803.297,-0 -1454.5,651.2 -1454.5,1454.5c0,803.297 651.201,1454.5 1454.5,1454.5c803.294,0 1454.5,-651.201 1454.5,-1454.5Zm-3076.42,-0c-0,-895.762 726.159,-1621.92 1621.92,-1621.92c895.762,0 1621.92,726.161 1621.92,1621.92c-0,895.762 -726.161,1621.92 -1621.92,1621.92c-895.765,0 -1621.92,-726.16 -1621.92,-1621.92Z" style="fill:#ff9d0b;fill-rule:nonzero;"/><path d="M2595.45,1658.48c53.342,18.836 74.567,128.498 128.452,99.844c102.054,-54.262 140.796,-180.982 86.534,-283.035c-54.263,-102.049 -180.982,-140.791 -283.035,-86.529c-102.054,54.262 -140.796,180.981 -86.534,283.035c25.612,48.168 106.901,-30.153 154.583,-13.315Z" style="fill:#3a3b45;fill-rule:nonzero;"/><path d="M1609.44,1658.48c-53.341,18.836 -74.562,128.498 -128.448,99.844c-102.053,-54.262 -140.795,-180.982 -86.533,-283.035c54.262,-102.049 180.981,-140.791 283.035,-86.529c102.053,54.262 140.795,180.981 86.533,283.035c-25.612,48.168 -106.905,-30.153 -154.587,-13.315Z" style="fill:#3a3b45;fill-rule:nonzero;"/><path d="M2112.41,2662.92c411.379,0 544.129,-366.78 544.129,-555.128c0,-97.889 -65.802,-67.079 -171.195,-14.901c-97.395,48.218 -228.601,114.681 -372.934,114.681c-300.514,0 -544.128,-288.129 -544.128,-99.78c-0,188.348 132.746,555.128 544.128,555.128Z" style="fill:#3a3b45;fill-rule:nonzero;"/><g><path d="M2122.87,3090.31c200.487,0 363.014,-162.527 363.014,-363.013c-0,-156.161 -98.6,-289.288 -236.939,-340.524c-5.094,-1.888 -10.238,-3.663 -15.432,-5.324c-34.883,-11.151 -72.06,108.742 -110.643,108.742c-36.05,-0 -70.874,-120.655 -103.748,-110.869c-149.937,44.636 -259.269,183.535 -259.269,347.975c-0,200.486 162.527,363.013 363.017,363.013Z" style="fill:#f94040;fill-rule:nonzero;"/></g><path d="M3106.49,1855.56c75.127,-0 136.032,-60.905 136.032,-136.033c0,-75.127 -60.905,-136.032 -136.032,-136.032c-75.132,0 -136.032,60.905 -136.032,136.032c-0,75.128 60.9,136.033 136.032,136.033Z" style="fill:#ff9d0b;fill-rule:nonzero;"/><path d="M1160.18,1855.56c75.127,-0 136.032,-60.905 136.032,-136.033c0,-75.127 -60.905,-136.032 -136.032,-136.032c-75.132,0 -136.032,60.905 -136.032,136.032c-0,75.128 60.9,136.033 136.032,136.033Z" style="fill:#ff9d0b;fill-rule:nonzero;"/><path d="M880.244,2315.97c-67.765,0 -128.33,27.835 -170.563,78.313c-26.118,31.266 -53.408,81.661 -55.627,157.128c-28.42,-8.162 -55.752,-12.725 -81.284,-12.725c-64.877,0 -123.476,24.863 -164.913,70.026c-53.241,57.97 -76.89,129.209 -66.593,200.49c4.897,33.945 16.24,64.375 33.192,92.544c-35.745,28.922 -62.073,69.188 -74.797,117.615c-9.962,37.964 -20.175,117.03 33.15,198.482c-3.39,5.316 -6.572,10.841 -9.543,16.491c-32.062,60.859 -34.113,129.628 -5.818,193.668c42.902,97.064 149.51,173.535 356.53,255.615c128.791,51.065 246.616,83.712 247.662,84.005c170.27,44.158 324.259,66.593 457.571,66.593c245.025,0 420.444,-75.048 521.401,-223.051c162.485,-238.328 139.255,-456.314 -70.988,-666.432c-116.36,-116.276 -193.71,-287.719 -209.825,-325.347c-32.48,-111.421 -118.369,-235.273 -261.14,-235.273l-0.042,-0c-12.012,-0 -24.151,0.963 -36.121,2.846c-62.533,9.836 -117.197,45.833 -156.249,99.994c-42.149,-52.403 -83.084,-94.092 -120.127,-117.615c-55.836,-35.41 -111.63,-53.367 -165.876,-53.367Zm0,167.425c21.347,-0 47.423,9.082 76.178,27.332c89.279,56.631 261.559,352.762 324.636,467.95c21.137,38.592 57.259,54.916 89.781,54.916c64.542,-0 114.937,-64.166 5.902,-145.701c-163.95,-122.681 -106.44,-323.213 -28.169,-335.561c3.432,-0.544 6.822,-0.795 10.087,-0.795c71.155,0 102.548,122.638 102.548,122.638c-0,0 91.999,231.046 250.048,388.969c158.048,157.965 166.21,284.747 51.022,453.678c-78.564,115.188 -228.952,149.97 -383.066,149.97c-159.849,0 -323.715,-37.419 -415.547,-61.235c-4.521,-1.172 -563.006,-158.928 -492.27,-293.202c11.887,-22.561 31.476,-31.601 56.129,-31.601c99.618,-0 280.813,148.254 358.707,148.254c17.412,-0 29.676,-7.409 34.698,-25.491c33.192,-119.08 -504.658,-169.14 -459.328,-341.629c7.995,-30.513 29.676,-42.902 60.147,-42.86c131.637,-0 426.974,231.505 488.879,231.505c4.73,0 8.12,-1.381 9.962,-4.311c31.015,-50.06 14.022,-85.009 -204.593,-217.316c-218.614,-132.349 -372.058,-211.959 -284.788,-306.973c10.045,-10.966 24.276,-15.821 41.563,-15.821c132.725,0.042 446.311,285.416 446.311,285.416c-0,0 84.633,88.023 135.823,88.023c11.761,0 21.765,-4.646 28.546,-16.114c36.289,-61.194 -337.067,-344.141 -358.121,-460.877c-14.273,-79.108 10.004,-119.164 54.915,-119.164Z" style="fill:#ff9d0b;fill-rule:nonzero;"/><path d="M1762.27,3516.81c115.188,-168.931 107.026,-295.713 -51.023,-453.677c-158.048,-157.923 -250.048,-388.969 -250.048,-388.969c0,0 -34.363,-134.19 -112.634,-121.843c-78.271,12.348 -135.74,212.88 28.211,335.56c163.95,122.638 -32.648,205.974 -95.725,90.786c-63.077,-115.188 -235.315,-411.32 -324.636,-467.951c-89.279,-56.631 -152.147,-24.904 -131.093,91.832c21.054,116.737 394.452,399.684 358.121,460.919c-36.332,61.194 -164.369,-71.95 -164.369,-71.95c-0,-0 -400.647,-364.608 -487.877,-269.595c-87.228,95.013 66.177,174.623 284.791,306.972c218.656,132.307 235.608,167.257 204.593,217.317c-31.058,50.06 -513.66,-356.823 -558.99,-184.334c-45.289,172.489 492.522,222.549 459.33,341.629c-33.192,119.122 -378.841,-225.395 -449.536,-91.162c-70.737,134.274 487.751,292.029 492.271,293.201c180.4,46.795 638.556,145.952 798.614,-88.735Z" style="fill:#ffd21e;fill-rule:nonzero;"/><path d="M3386.42,2315.97c67.765,0 128.331,27.835 170.564,78.313c26.118,31.266 53.408,81.661 55.626,157.128c28.421,-8.162 55.753,-12.725 81.285,-12.725c64.877,0 123.475,24.863 164.913,70.026c53.241,57.97 76.889,129.209 66.593,200.49c-4.897,33.945 -16.24,64.375 -33.192,92.544c35.745,28.922 62.073,69.188 74.797,117.615c9.962,37.964 20.174,117.03 -33.15,198.482c3.39,5.316 6.571,10.841 9.543,16.491c32.062,60.859 34.113,129.628 5.818,193.668c-42.903,97.064 -149.51,173.535 -356.53,255.615c-128.791,51.065 -246.616,83.712 -247.662,84.005c-170.271,44.158 -324.259,66.593 -457.571,66.593c-245.025,0 -420.444,-75.048 -521.401,-223.051c-162.485,-238.328 -139.255,-456.314 70.988,-666.432c116.36,-116.276 193.71,-287.719 209.824,-325.347c32.481,-111.421 118.369,-235.273 261.14,-235.273l0.042,-0c12.013,-0 24.151,0.963 36.122,2.846c62.533,9.836 117.197,45.833 156.249,99.994c42.149,-52.403 83.084,-94.092 120.127,-117.615c55.836,-35.41 111.63,-53.367 165.875,-53.367Zm0,167.425c-21.346,-0 -47.423,9.082 -76.178,27.332c-89.279,56.631 -261.558,352.762 -324.635,467.95c-21.138,38.592 -57.259,54.916 -89.782,54.916c-64.542,-0 -114.936,-64.166 -5.901,-145.701c163.95,-122.681 106.44,-323.213 28.169,-335.561c-3.432,-0.544 -6.823,-0.795 -10.088,-0.795c-71.155,0 -102.547,122.638 -102.547,122.638c0,0 -92,231.046 -250.048,388.969c-158.049,157.965 -166.21,284.747 -51.023,453.678c78.564,115.188 228.953,149.97 383.067,149.97c159.848,0 323.715,-37.419 415.547,-61.235c4.521,-1.172 563.006,-158.928 492.269,-293.202c-11.887,-22.561 -31.475,-31.601 -56.129,-31.601c-99.617,-0 -280.812,148.254 -358.706,148.254c-17.412,-0 -29.676,-7.409 -34.699,-25.491c-33.192,-119.08 504.659,-169.14 459.329,-341.629c-7.995,-30.513 -29.676,-42.902 -60.148,-42.86c-131.637,-0 -426.973,231.505 -488.878,231.505c-4.73,0 -8.12,-1.381 -9.962,-4.311c-31.015,-50.06 -14.022,-85.009 204.592,-217.316c218.615,-132.349 372.059,-211.959 284.789,-306.973c-10.045,-10.966 -24.276,-15.821 -41.563,-15.821c-132.726,0.042 -446.311,285.416 -446.311,285.416c-0,0 -84.633,88.023 -135.823,88.023c-11.762,0 -21.765,-4.646 -28.546,-16.114c-36.289,-61.194 337.067,-344.141 358.12,-460.877c14.273,-79.108 -10.003,-119.164 -54.915,-119.164Z" style="fill:#ff9d0b;fill-rule:nonzero;"/><path d="M2504.4,3516.81c-115.188,-168.931 -107.026,-295.713 51.022,-453.677c158.049,-157.923 250.048,-388.969 250.048,-388.969c0,0 34.364,-134.19 112.635,-121.843c78.271,12.348 135.739,212.88 -28.211,335.56c-163.95,122.638 32.648,205.974 95.725,90.786c63.077,-115.188 235.315,-411.32 324.636,-467.951c89.279,-56.631 152.146,-24.904 131.093,91.832c-21.054,116.737 -394.452,399.684 -358.121,460.919c36.331,61.194 164.369,-71.95 164.369,-71.95c0,-0 400.646,-364.608 487.874,-269.595c87.228,95.013 -66.174,174.623 -284.788,306.972c-218.656,132.307 -235.608,167.257 -204.593,217.317c31.057,50.06 513.658,-356.823 558.988,-184.334c45.288,172.489 -492.52,222.549 -459.328,341.629c33.191,119.122 378.839,-225.395 449.534,-91.162c70.736,134.274 -487.749,292.029 -492.269,293.201c-180.4,46.795 -638.557,145.952 -798.614,-88.735Z" style="fill:#ffd21e;fill-rule:nonzero;"/></g></svg>