<?xml version="1.0" encoding="UTF-8" standalone="no"?><!DOCTYPE svg PUBLIC "-//W3C//DTD SVG 1.1//EN" "http://www.w3.org/Graphics/SVG/1.1/DTD/svg11.dtd"><svg width="100%" height="100%" viewBox="0 0 1024 1024" version="1.1" xmlns="http://www.w3.org/2000/svg" xmlns:xlink="http://www.w3.org/1999/xlink" xml:space="preserve" xmlns:serif="http://www.serif.com/" style="fill-rule:evenodd;clip-rule:evenodd;stroke-linecap:round;stroke-linejoin:round;stroke-miterlimit:1.5;"><rect id="New-File" serif:id="New File" x="0" y="0" width="1024" height="1024" style="fill:none;"/><path d="M838,270l-200,-200l-352,-0c-55.192,-0 -100,44.808 -100,100l0,696c0,55.192 44.808,100 100,100l452,0c55.192,0 100,-44.808 100,-100l0,-596Z" style="fill:#fff;"/><path d="M838,270l-200,-200l-352,-0c-55.192,-0 -100,44.808 -100,100l0,696c0,55.192 44.808,100 100,100l452,-0c55.192,-0 100,-44.808 100,-100l0,-596Zm-35,14.497l0,581.503c0,35.874 -29.126,65 -65,65l-452,-0c-35.874,-0 -65,-29.126 -65,-65c0,0 0,-696 0,-696c0,-35.874 29.126,-65 65,-65l337.503,-0l179.497,179.497Z" style="fill:#6b6b6b;"/><path d="M773.5,320.5l-183,-183l0,158c-0,6.63 2.634,12.989 7.322,17.678c4.689,4.688 11.048,7.322 17.678,7.322l158,-0Z" style="fill:#6b6b6b;"/><path d="M773.5,320.5l-183,-183l0,158c-0,6.63 2.634,12.989 7.322,17.678c4.689,4.688 11.048,7.322 17.678,7.322l158,-0Zm-54.64,-22.633l-103.36,0c-0.628,0 -1.23,-0.249 -1.674,-0.693c-0.444,-0.444 -0.693,-1.046 -0.693,-1.674l-0,-103.36l105.727,105.727Z" style="fill:#6b6b6b;"/><g><path d="M342,444l340,0" style="fill:none;stroke:#6b6b6b;stroke-width:50px;"/><path d="M342,555l340,0" style="fill:none;stroke:#6b6b6b;stroke-width:50px;"/><path d="M342,666l340,0" style="fill:none;stroke:#6b6b6b;stroke-width:50px;"/><path d="M342,777l340,0" style="fill:none;stroke:#6b6b6b;stroke-width:50px;"/></g></svg>