<?xml version="1.0" encoding="UTF-8" standalone="no"?><!DOCTYPE svg PUBLIC "-//W3C//DTD SVG 1.1//EN" "http://www.w3.org/Graphics/SVG/1.1/DTD/svg11.dtd"><svg width="100%" height="100%" viewBox="0 0 4267 4267" version="1.1" xmlns="http://www.w3.org/2000/svg" xmlns:xlink="http://www.w3.org/1999/xlink" xml:space="preserve" xmlns:serif="http://www.serif.com/" style="fill-rule:evenodd;clip-rule:evenodd;stroke-linecap:round;stroke-linejoin:round;stroke-miterlimit:1.5;"><rect id="New-File" serif:id="New File" x="0" y="0" width="4266.67" height="4266.67" style="fill:none;"/><g><path d="M3491.67,1125l-833.334,-833.333l-1466.67,-0c-229.965,-0 -416.667,186.702 -416.667,416.666l0,2850c0,229.965 186.702,416.667 416.667,416.667l1883.33,0c229.965,0 416.667,-186.702 416.667,-416.667l-0,-2433.33Z" style="fill:#fff;"/><path d="M3491.67,1125l-833.334,-833.333l-1466.67,-0c-229.965,-0 -416.667,186.702 -416.667,416.666l0,2850c0,229.965 186.702,416.667 416.667,416.667l1883.33,0c229.965,0 416.667,-186.702 416.667,-416.667l-0,-2433.33Zm-145.834,60.406l0,2372.93c0,149.477 -121.356,270.834 -270.833,270.834l-1883.33,-0c-149.477,-0 -270.834,-121.357 -270.834,-270.834c0,0 0,-2850 0,-2850c0,-149.477 121.357,-270.833 270.834,-270.833l1406.26,-0l747.906,747.906Z" style="fill:#6b6b6b;"/><path d="M3222.92,1335.42l-762.5,-762.5l-0,658.333c-0,27.627 10.974,54.122 30.509,73.657c19.535,19.535 46.031,30.51 73.657,30.51l658.334,-0Z" style="fill:#6b6b6b;"/><path d="M3222.92,1335.42l-762.5,-762.5l-0,658.333c-0,27.627 10.974,54.122 30.509,73.657c19.535,19.535 46.031,30.51 73.657,30.51l658.334,-0Zm-227.666,-94.302l-430.668,-0c-2.616,-0 -5.125,-1.04 -6.975,-2.89c-1.85,-1.85 -2.889,-4.359 -2.889,-6.975l-0,-430.668l440.532,440.533Z" style="fill:#6b6b6b;"/><g><path d="M1425,1850l1416.67,0" style="fill:none;stroke:#6b6b6b;stroke-width:208.33px;"/><path d="M1425,2312.5l1416.67,0" style="fill:none;stroke:#6b6b6b;stroke-width:208.33px;"/><path d="M1425,2775l1416.67,0" style="fill:none;stroke:#6b6b6b;stroke-width:208.33px;"/><path d="M1425,3237.5l1416.67,0" style="fill:none;stroke:#6b6b6b;stroke-width:208.33px;"/></g></g></svg>