<?xml version="1.0" encoding="UTF-8" standalone="no"?><!DOCTYPE svg PUBLIC "-//W3C//DTD SVG 1.1//EN" "http://www.w3.org/Graphics/SVG/1.1/DTD/svg11.dtd"><svg width="100%" height="100%" viewBox="0 0 4267 4267" version="1.1" xmlns="http://www.w3.org/2000/svg" xmlns:xlink="http://www.w3.org/1999/xlink" xml:space="preserve" xmlns:serif="http://www.serif.com/" style="fill-rule:evenodd;clip-rule:evenodd;stroke-linejoin:round;stroke-miterlimit:2;"><rect id="New" x="0" y="0" width="4266.67" height="4266.67" style="fill:none;"/><path d="M2875.91,1740.09c-0.001,-76.233 -56.408,-140.703 -131.966,-150.827c-496.124,-64.168 -888.983,-486.924 -943.28,-1017.35c-7.513,-71.551 -67.842,-125.877 -139.786,-125.877c-0.004,-0.204 -0.009,-0.204 -0.013,-0.204c-72.048,0.001 -132.465,54.405 -139.988,126.059c-54.095,530.449 -446.954,953.205 -943.045,1017.62c-75.436,10.107 -131.753,74.473 -131.753,150.583c-0.246,0 -0.246,0.001 -0.246,0.001c0.001,76.233 56.408,140.702 131.966,150.826c496.124,64.169 888.983,486.925 943.28,1017.35c7.513,71.55 67.842,125.876 139.786,125.876c0.004,0.204 0.009,0.204 0.013,0.204c72.048,0 132.465,-54.405 139.988,-126.059c54.095,-530.448 446.954,-953.204 943.045,-1017.62c75.436,-10.108 131.753,-74.473 131.753,-150.583c0.246,-0 0.246,-0.001 0.246,-0.001Z" style="fill:#ffb100;"/><path d="M1649.31,3179.71c3.835,0.337 7.688,0.476 11.567,0.476c0,-0 0,-0 0.001,-0c146.693,-0.001 269.704,-110.772 285.023,-256.663c0.016,-0.145 0.031,-0.29 0.045,-0.434c47.035,-461.221 385.394,-831.787 816.742,-887.792c0.196,-0.026 0.393,-0.052 0.59,-0.078c108.075,-14.481 196.127,-85.787 235.678,-181.369c52.136,-42.883 22.786,-113.6 22.786,-113.757c0,-0 0,-0 0,-0.001c-0.001,-149.289 -110.465,-275.541 -258.432,-295.367c-0.22,-0.03 -0.44,-0.059 -0.661,-0.087c-431.37,-55.794 -769.701,-426.378 -816.911,-887.574c-0.013,-0.126 -0.026,-0.252 -0.039,-0.379c-14.904,-141.939 -131.817,-250.611 -273.268,-256.208c-3.834,-0.338 -7.688,-0.476 -11.567,-0.476c-0,0 -0,0 -0.001,0c-146.693,0 -269.704,110.772 -285.023,256.663c-0.016,0.145 -0.031,0.29 -0.045,0.434c-47.035,461.221 -385.394,831.786 -816.742,887.792c-0.196,0.026 -0.393,0.052 -0.59,0.078c-108.075,14.481 -196.127,85.786 -235.678,181.368c-52.137,42.883 -22.786,113.6 -22.786,113.758c0,-0 0,0 0,0c0.001,149.289 110.465,275.542 258.432,295.368c0.22,0.029 0.44,0.058 0.661,0.087c431.37,55.794 769.701,426.377 816.911,887.574c0.013,0.126 0.026,0.252 0.039,0.378c14.904,141.939 131.817,250.612 273.268,256.209Zm1144.44,-1574.71c-15.198,-7.923 -31.97,-13.342 -49.809,-15.733c-496.124,-64.168 -888.983,-486.924 -943.28,-1017.35c-7.513,-71.551 -67.842,-125.877 -139.786,-125.877c-0.004,-0.204 -0.009,-0.204 -0.013,-0.204c-72.048,0.001 -132.465,54.405 -139.988,126.059c-54.095,530.449 -446.954,953.205 -943.045,1017.62c-75.436,10.107 -131.753,74.473 -131.753,150.583c-0.246,0 -0.246,0.001 -0.246,0.001c0.001,53.302 27.577,100.853 70.022,128.073c-20.679,11.304 -44.397,17.731 -69.615,17.759c34.049,-0.037 60.814,-4.042 81.75,-10.739c15.198,7.923 31.97,13.343 49.809,15.733c496.124,64.169 888.983,486.925 943.28,1017.35c7.513,71.55 67.842,125.876 139.786,125.876c0.004,0.204 0.009,0.204 0.013,0.204c72.048,0 132.465,-54.405 139.988,-126.059c54.095,-530.448 446.954,-953.204 943.045,-1017.62c75.436,-10.108 131.753,-74.473 131.753,-150.583c0.246,-0 0.246,-0.001 0.246,-0.001c-0.001,-53.302 -27.577,-100.853 -70.022,-128.074c20.679,-11.303 44.397,-17.731 69.615,-17.758c-34.048,0.037 -60.814,4.042 -81.75,10.738Zm-1007.48,1354.76c1.146,1.309 5.927,4.49 10.579,14.659c4.652,10.169 9.176,27.325 9.807,56.582c-0.561,-26.026 -7.915,-50.337 -20.386,-71.241Zm-250.813,-2439.34c-1.146,-1.309 -5.927,-4.491 -10.579,-14.659c-4.652,-10.169 -9.176,-27.325 -9.807,-56.582c0.561,26.025 7.915,50.337 20.386,71.241Z" style="fill:#cb7800;"/><path d="M3820.83,2690.26c0,-32.917 -24.619,-60.632 -57.307,-64.513c-227.884,-26.182 -408.924,-207.221 -435.205,-435.094c-3.875,-32.637 -31.547,-57.218 -64.414,-57.218c-0.004,-0.101 -0.008,-0.101 -0.012,-0.101c-32.917,0.001 -60.632,24.62 -64.513,57.308c-26.182,227.884 -207.222,408.923 -435.094,435.205c-32.637,3.875 -57.219,31.547 -57.219,64.413c-0.1,0.004 -0.1,0.009 -0.1,0.013c0,32.917 24.62,60.632 57.307,64.513c227.884,26.182 408.924,207.222 435.205,435.094c3.875,32.637 31.547,57.218 64.414,57.218c0.004,0.101 0.008,0.101 0.012,0.101c32.917,-0 60.632,-24.62 64.513,-57.307c26.182,-227.884 207.222,-408.924 435.094,-435.205c32.637,-3.875 57.219,-31.548 57.219,-64.414c0.1,-0.004 0.1,-0.009 0.1,-0.013Z" style="fill:#ffb100;"/><path d="M2562.82,2664.79c-1.219,8.381 -1.687,16.846 -1.687,25.48c0,0 0,0.001 0,0.001c0.002,106.808 79.885,196.736 185.948,209.328c0.182,0.022 0.365,0.043 0.547,0.064c160.748,18.469 288.44,146.184 306.978,306.923c0.019,0.161 0.038,0.323 0.057,0.484c11.571,97.458 88.468,172.801 183.762,184.273c8.381,1.219 16.847,1.686 25.48,1.686c0.001,0 0.001,0 0.002,0c106.807,-0.001 196.735,-79.885 209.328,-185.947c0.021,-0.183 0.043,-0.365 0.064,-0.548c18.468,-160.747 146.183,-288.439 306.922,-306.977c0.162,-0.019 0.323,-0.038 0.485,-0.057c97.457,-11.571 172.801,-88.469 184.272,-183.761c1.219,-8.382 1.687,-16.848 1.687,-25.482c-0,-0 -0,-0.001 -0,-0.001c-0.001,-106.808 -79.885,-196.736 -185.948,-209.328c-0.182,-0.022 -0.365,-0.043 -0.547,-0.064c-160.747,-18.468 -288.439,-146.184 -306.978,-306.922c-0.019,-0.162 -0.038,-0.324 -0.057,-0.485c-11.571,-97.457 -88.468,-172.801 -183.762,-184.273c-8.381,-1.219 -16.847,-1.686 -25.48,-1.686c-0.001,0 -0.001,0 -0.002,0c-106.807,0.001 -196.735,79.885 -209.327,185.947c-0.022,0.183 -0.043,0.365 -0.064,0.548c-18.469,160.747 -146.184,288.439 -306.923,306.978c-0.162,0.018 -0.323,0.037 -0.485,0.056c-97.457,11.571 -172.8,88.469 -184.272,183.763Zm1133.52,-51.551c-195.529,-50.539 -344.384,-217.618 -368.024,-422.589c-3.875,-32.637 -31.547,-57.218 -64.414,-57.218c-0.004,-0.101 -0.008,-0.101 -0.012,-0.101c-32.917,0.001 -60.632,24.62 -64.513,57.308c-2.611,22.72 -6.76,44.974 -12.37,66.659c-6.329,-3.899 -12.321,-8.292 -17.937,-13.109c5.991,5.273 11.909,9.795 17.801,13.63c-50.538,195.529 -217.617,344.385 -422.588,368.025c-32.637,3.875 -57.219,31.547 -57.219,64.413c-0.1,0.004 -0.1,0.009 -0.1,0.013c0,32.917 24.62,60.632 57.307,64.513c22.72,2.61 44.974,6.76 66.659,12.37c-3.899,6.329 -8.291,12.321 -13.109,17.936c5.274,-5.99 9.796,-11.908 13.631,-17.8c195.529,50.538 344.384,217.617 368.024,422.588c3.875,32.637 31.547,57.218 64.414,57.218c0.004,0.101 0.008,0.101 0.012,0.101c32.917,-0 60.632,-24.62 64.513,-57.307c2.611,-22.72 6.76,-44.975 12.37,-66.659c6.329,3.899 12.321,8.291 17.937,13.108c-5.991,-5.273 -11.909,-9.795 -17.801,-13.63c50.538,-195.529 217.617,-344.384 422.588,-368.024c32.637,-3.875 57.219,-31.548 57.219,-64.414c0.1,-0.004 0.1,-0.009 0.1,-0.013c0,-32.917 -24.619,-60.632 -57.307,-64.513c-22.72,-2.61 -44.974,-6.76 -66.659,-12.37c3.899,-6.329 8.292,-12.321 13.111,-17.938c-5.274,5.99 -9.797,11.909 -13.633,17.803Zm-303.599,565.554c1.221,2.016 4.95,5.995 8.617,15.257c3.666,9.261 7.269,23.804 8.238,46.947c-0.941,-22.462 -6.926,-43.562 -16.855,-62.204Zm-12.168,-19.126l1.635,2.181l-1.635,-2.181Zm-605.206,-340.559c-2.016,1.222 -5.996,4.951 -15.257,8.617c-9.261,3.666 -23.804,7.269 -46.947,8.238c22.462,-0.94 43.562,-6.926 62.204,-16.855Zm26.258,-17.852l-2.392,1.974l2.392,-1.974Zm3.862,-3.436l-0.452,0.41l0.452,-0.41Zm916.911,-215.204l-0.091,0.089l0.453,-0.41l-0.362,0.321Zm3.965,-3.519l-0.194,0.173l2.389,-1.972l-2.195,1.799Zm9.026,-7.082l-2.088,1.571l2.181,-1.635l-0.093,0.064Zm17.039,-10.597c2.015,-1.222 5.995,-4.951 15.256,-8.617c9.261,-3.665 23.803,-7.268 46.945,-8.237c-22.454,0.94 -43.547,6.922 -62.201,16.854Zm-596.177,-329.654l0.089,0.091l-0.41,-0.452l0.321,0.361Zm-3.52,-3.965l0.172,0.193l-1.974,-2.391l1.802,2.198Zm-7.082,-9.026l1.57,2.087l-1.634,-2.181l0.064,0.094Zm-10.598,-17.039c-1.221,-2.015 -4.95,-5.995 -8.616,-15.256c-3.667,-9.262 -7.27,-23.805 -8.238,-46.948c0.94,22.462 6.925,43.562 16.854,62.204Z" style="fill:#cb7800;"/><path d="M2706.97,3449.54c-0,-21.943 -16.412,-40.418 -38.203,-43.005c-151.924,-17.454 -272.619,-138.149 -290.139,-290.065c-2.583,-21.757 -21.03,-38.144 -42.94,-38.144c-0.004,-0.067 -0.009,-0.067 -0.013,-0.067c-21.943,0 -40.419,16.412 -43.006,38.203c-17.454,151.924 -138.149,272.619 -290.065,290.139c-21.757,2.583 -38.143,21.03 -38.143,42.939c-0.068,0.005 -0.068,0.009 -0.068,0.014c0.001,21.943 16.413,40.419 38.203,43.006c151.924,17.454 272.619,138.148 290.139,290.065c2.583,21.757 21.03,38.143 42.94,38.143c0.004,0.067 0.009,0.067 0.013,0.067c21.944,0 40.419,-16.412 43.006,-38.202c17.454,-151.925 138.149,-272.619 290.065,-290.139c21.757,-2.583 38.144,-21.031 38.144,-42.94c0.067,-0.005 0.067,-0.009 0.067,-0.014Z" style="fill:#ffb100;"/><path d="M1819.05,3437.49c-0.355,3.993 -0.494,8.01 -0.494,12.061c0,0 0,0.001 0,0.001c0.001,95.834 71.678,176.523 166.844,187.821c0.182,0.022 0.365,0.043 0.547,0.064c84.787,9.741 152.133,77.11 161.911,161.893c0.019,0.161 0.038,0.323 0.057,0.484c10.817,91.119 85.271,160.695 175.708,166.358c3.993,0.354 8.011,0.494 12.061,0.494c0.001,-0 0.001,-0 0.002,-0c95.834,-0.001 176.523,-71.678 187.821,-166.844c0.021,-0.182 0.043,-0.365 0.064,-0.548c9.74,-84.786 77.11,-152.133 161.892,-161.91c0.162,-0.019 0.323,-0.038 0.485,-0.057c91.118,-10.818 160.695,-85.271 166.357,-175.708c0.355,-3.994 0.494,-8.011 0.494,-12.062c0,0 0,-0 0,-0.001c-0.001,-95.834 -71.678,-176.523 -166.843,-187.821c-0.183,-0.021 -0.366,-0.043 -0.548,-0.064c-84.787,-9.741 -152.133,-77.11 -161.911,-161.892c-0.019,-0.162 -0.037,-0.323 -0.057,-0.485c-10.817,-91.118 -85.271,-160.695 -175.708,-166.358c-3.993,-0.354 -8.01,-0.493 -12.061,-0.493c-0,-0 -0.001,-0 -0.001,-0c-95.835,0.001 -176.523,71.677 -187.821,166.843c-0.022,0.183 -0.043,0.365 -0.064,0.548c-9.741,84.787 -77.111,152.133 -161.893,161.911c-0.161,0.018 -0.323,0.037 -0.485,0.056c-91.118,10.818 -160.695,85.271 -166.357,175.709Zm887.916,12.047c-0,-21.943 -16.412,-40.418 -38.203,-43.005c-151.924,-17.454 -272.619,-138.149 -290.139,-290.065c-2.583,-21.757 -21.03,-38.144 -42.94,-38.144c-0.004,-0.067 -0.009,-0.067 -0.013,-0.067c-21.943,0 -40.419,16.412 -43.006,38.203c-17.454,151.924 -138.149,272.619 -290.065,290.139c-21.757,2.583 -38.143,21.03 -38.143,42.939c-0.068,0.005 -0.068,0.009 -0.068,0.014c0.001,21.943 16.413,40.419 38.203,43.006c151.924,17.454 272.619,138.148 290.139,290.065c2.583,21.757 21.03,38.143 42.94,38.143c0.004,0.067 0.009,0.067 0.013,0.067c21.944,0 40.419,-16.412 43.006,-38.202c17.454,-151.925 138.149,-272.619 290.065,-290.139c21.757,-2.583 38.144,-21.031 38.144,-42.94c0.067,-0.005 0.067,-0.009 0.067,-0.014Zm-226.357,355.15c0.244,2.134 0.434,4.284 0.577,6.447l-0.577,-6.447c-3.261,-29.642 -15.329,-56.474 -33.483,-77.919c2.208,2.603 9.627,7.137 17.042,19.299c6.92,11.35 13.837,29.345 16.441,58.62Zm-38.218,-83.257l0.421,0.452l-0.421,-0.452Zm-5.142,-5.252l1.389,1.361l-0.484,-0.502l-0.905,-0.859Zm-5.13,-4.751l2.158,1.928l-0.639,-0.606l-1.519,-1.322Zm-4.673,-3.95l2.124,1.731l-0.458,-0.399l-1.666,-1.332Zm-446.911,-113.002c-2.134,0.244 -4.284,0.434 -6.447,0.577l6.447,-0.577c29.641,-3.261 56.474,-15.328 77.919,-33.482c-2.603,2.207 -7.137,9.626 -19.299,17.041c-11.35,6.921 -29.346,13.838 -58.62,16.441Zm83.257,-38.218l-0.453,0.422l0.453,-0.422Zm5.252,-5.141l-1.361,1.388l0.502,-0.483l0.859,-0.905Zm4.751,-5.13l-1.929,2.157l0.606,-0.638l1.323,-1.519Zm3.949,-4.673l-1.73,2.124l0.398,-0.458l1.332,-1.666Zm517.199,-185.204l-1.332,1.666l1.73,-2.124l-0.398,0.458Zm3.94,-4.526l-1.322,1.519l1.928,-2.157l-0.606,0.638Zm4.288,-4.516l-0.859,0.905l1.36,-1.388l-0.501,0.483Zm4.661,-4.495l-0.268,0.258l0.452,-0.421l-0.184,0.163Zm82.988,-37.959c-29.641,3.261 -56.474,15.329 -77.918,33.482c2.603,-2.207 7.137,-9.626 19.298,-17.041c11.351,-6.921 29.346,-13.838 58.62,-16.441c2.134,-0.244 4.284,-0.434 6.447,-0.577l-6.447,0.577Zm-448.577,-114.334l1.666,1.332l-2.124,-1.73l0.458,0.398Zm-4.526,-3.94l1.519,1.322l-2.157,-1.928l0.638,0.606Zm-4.516,-4.288l0.905,0.859l-1.388,-1.36l0.483,0.501Zm-4.495,-4.66l0.258,0.267l-0.421,-0.452l0.163,0.185Zm-37.96,-82.989c3.261,29.641 15.329,56.474 33.483,77.918c-2.208,-2.603 -9.627,-7.136 -17.042,-19.298c-6.92,-11.351 -13.837,-29.346 -16.441,-58.62c-0.244,-2.134 -0.433,-4.284 -0.577,-6.448l0.577,6.448Z" style="fill:#cb7800;"/></svg>