<?xml version="1.0" encoding="UTF-8" standalone="no"?><!DOCTYPE svg PUBLIC "-//W3C//DTD SVG 1.1//EN" "http://www.w3.org/Graphics/SVG/1.1/DTD/svg11.dtd"><svg width="100%" height="100%" viewBox="0 0 4267 4267" version="1.1" xmlns="http://www.w3.org/2000/svg" xmlns:xlink="http://www.w3.org/1999/xlink" xml:space="preserve" xmlns:serif="http://www.serif.com/" style="fill-rule:evenodd;clip-rule:evenodd;stroke-linejoin:round;stroke-miterlimit:2;"><rect id="OpenAI" x="0" y="0" width="4266.67" height="4266.67" style="fill:none;"/><g><path d="M3620.85,1822.39c78.5,-233.181 51.293,-488.793 -74.595,-700.806c-189.403,-325.18 -570.059,-492.461 -941.801,-413.875c-166.333,-182.503 -403.746,-286.878 -652.54,-286.878c-378.639,0 -716.524,241.751 -834.098,596.783c-244.067,49.374 -455.025,200.337 -578.357,413.875c-191.457,324.653 -147.998,734.193 107.456,1012.72c-78.788,233.08 -51.816,488.725 73.938,700.807c189.609,325.301 570.511,492.561 942.478,413.875c165.362,183.671 403.269,288.322 652.294,286.931c381.025,0.344 718.633,-242.3 835.002,-600.199c244.031,-49.456 454.957,-200.397 578.357,-413.875c189.157,-324.087 145.513,-731.418 -108.134,-1009.35Z" style="fill:#fff;fill-rule:nonzero;"/><path d="M3733.05,1798.94c84.422,-250.769 55.162,-525.661 -80.221,-753.665c-203.689,-349.707 -613.056,-529.605 -1012.84,-445.092c-178.879,-196.269 -434.199,-308.515 -701.758,-308.515c-407.199,-0 -770.568,259.984 -897.012,641.795c-262.475,53.098 -489.345,215.448 -621.979,445.092c-205.898,349.141 -159.161,789.57 115.561,1089.1c-84.731,250.66 -55.725,525.587 79.514,753.665c203.911,349.838 613.542,529.714 1013.57,445.092c177.834,197.526 433.686,310.07 701.494,308.573c409.764,0.371 772.836,-260.575 897.983,-645.469c262.436,-53.186 489.272,-215.511 621.979,-445.092c203.424,-348.531 156.489,-786.586 -116.29,-1085.49Zm-1403.69,1934.99c-163.527,0.26 -322.033,-56.31 -447.534,-159.722l22.088,-12.354l743.437,-423.304c37.595,-21.754 60.857,-61.565 61.094,-104.558l-0,-1033.94l314.303,179.353c3.141,1.575 5.335,4.542 5.897,7.974l-0,856.784c-0.817,380.624 -313.419,688.979 -699.285,689.785l-0,-0.022Zm-1503.07,-633.138c-82.007,-139.679 -111.474,-303.519 -83.181,-462.5l22.087,13.073l744.167,423.282c37.446,21.679 84.011,21.679 121.458,0l909.048,-516.946l0,357.965c-0.178,3.743 -2.074,7.209 -5.146,9.412l-753.002,428.403c-334.623,190.137 -762.123,77.083 -955.431,-252.689Zm-195.805,-1597.33c82.578,-140.585 213.01,-247.888 368.042,-302.777l-0,871.272c-0.57,42.821 22.61,82.695 60.364,103.838l904.631,514.79l-314.302,179.352c-3.45,1.808 -7.594,1.808 -11.044,0l-751.522,-427.684c-333.96,-190.921 -448.483,-612.309 -256.169,-942.429l0,3.638Zm2582.16,591.742l-907.568,-519.866l313.552,-178.612c3.449,-1.807 7.594,-1.807 11.043,0l751.544,428.381c216.154,123.049 349.754,351.26 349.754,597.435c-0,287.366 -182.049,545.957 -455.022,646.335l-0,-871.316c-1.316,-42.701 -25.417,-81.679 -63.303,-102.379l0,0.022Zm312.823,-463.96l-22.087,-13.072l-742.687,-426.921c-37.671,-21.807 -84.515,-21.807 -122.187,-0l-908.319,516.924l-0,-357.964c-0.381,-3.693 1.317,-7.309 4.417,-9.413l751.522,-427.683c106.27,-60.389 226.787,-92.182 349.43,-92.182c384.016,-0 700.014,311.704 700.014,690.503c0,39.175 -3.38,78.279 -10.103,116.889l0,2.919Zm-1966.79,634.576l-314.303,-178.612c-3.178,-1.897 -5.34,-5.093 -5.898,-8.715l0,-854.605c0.509,-378.453 316.348,-689.589 700.014,-689.589c163.451,0 321.85,56.47 447.534,159.549l-22.087,12.353l-743.438,423.305c-37.595,21.753 -60.857,61.564 -61.094,104.557l-0.728,1031.76Zm170.779,-363.041l404.839,-230.161l405.567,230.161l0,460.321l-404.11,230.183l-405.545,-230.183l-0.729,-460.321l-0.022,0Z" style="fill:#5e00ff;fill-rule:nonzero;"/></g></svg>