<?xml version="1.0" encoding="UTF-8" standalone="no"?><!DOCTYPE svg PUBLIC "-//W3C//DTD SVG 1.1//EN" "http://www.w3.org/Graphics/SVG/1.1/DTD/svg11.dtd"><svg width="100%" height="100%" viewBox="0 0 4267 4267" version="1.1" xmlns="http://www.w3.org/2000/svg" xmlns:xlink="http://www.w3.org/1999/xlink" xml:space="preserve" xmlns:serif="http://www.serif.com/" style="fill-rule:evenodd;clip-rule:evenodd;stroke-linecap:round;stroke-linejoin:round;stroke-miterlimit:1.5;"><rect id="Robot" x="0" y="0" width="4266.67" height="4266.67" style="fill:none;"/><g><path d="M3279.17,1772.92c-0,-316.202 -256.716,-572.917 -572.917,-572.917l-1145.83,0c-316.202,0 -572.917,256.715 -572.917,572.917l0,1145.83c0,316.201 256.715,572.917 572.917,572.917l1145.83,-0c316.201,-0 572.917,-256.716 572.917,-572.917l-0,-1145.83Z" style="fill:#fff;"/><path d="M3279.17,1772.92c-0,-316.202 -256.716,-572.917 -572.917,-572.917l-1145.83,0c-316.202,0 -572.917,256.715 -572.917,572.917l0,1145.83c0,316.201 256.715,572.917 572.917,572.917l1145.83,-0c316.201,-0 572.917,-256.716 572.917,-572.917l-0,-1145.83Zm-145.834,-0l0,1145.83c0,235.714 -191.369,427.083 -427.083,427.083l-1145.83,0c-235.714,0 -427.084,-191.369 -427.084,-427.083l0,-1145.83c0,-235.714 191.37,-427.084 427.084,-427.084l1145.83,0c235.714,0 427.083,191.37 427.083,427.084Z" style="fill:#6b6b6b;"/><path d="M900.334,2986.66c-338.863,-17.228 -608.667,-297.77 -608.667,-640.831c-0,-354.145 287.521,-641.666 641.666,-641.666l0,1283.33l-32.999,-0.836Z" style="fill:#fff;"/><path d="M900.334,2986.66c-338.863,-17.228 -608.667,-297.77 -608.667,-640.831c-0,-354.145 287.521,-641.666 641.666,-641.666l0,1283.33l-32.999,-0.836Zm-112.834,-166.819c-202.604,-62.318 -350,-251.1 -350,-474.012c-0,-222.914 147.419,-411.668 350,-474.004l0,948.016Z" style="fill:#6b6b6b;"/><path d="M3366.33,2986.66c338.863,-17.228 608.667,-297.77 608.667,-640.831c0,-354.145 -287.521,-641.666 -641.667,-641.666l0,1283.33l33,-0.836Z" style="fill:#fff;"/><path d="M3366.33,2986.66c338.863,-17.228 608.667,-297.77 608.667,-640.831c0,-354.145 -287.521,-641.666 -641.667,-641.666l0,1283.33l33,-0.836Zm112.834,-166.819l-0,-948.016c202.58,62.336 350,251.09 350,474.004c-0,222.906 -147.389,411.684 -350,474.012Z" style="fill:#6b6b6b;"/><g><circle cx="1658.33" cy="2066.67" r="362.5" style="fill:#fff;"/><path d="M1658.33,1704.17c200.07,-0 362.5,162.43 362.5,362.5c0,200.069 -162.43,362.5 -362.5,362.5c-200.069,-0 -362.5,-162.431 -362.5,-362.5c0,-200.07 162.431,-362.5 362.5,-362.5Zm0,145.833c119.582,0 216.667,97.085 216.667,216.667c0,119.581 -97.085,216.666 -216.667,216.666c-119.581,0 -216.666,-97.085 -216.666,-216.666c-0,-119.582 97.085,-216.667 216.666,-216.667Z" style="fill:#6b6b6b;"/><circle cx="2608.33" cy="2066.67" r="362.5" style="fill:#fff;"/><path d="M2608.33,1704.17c200.07,-0 362.5,162.43 362.5,362.5c0,200.069 -162.43,362.5 -362.5,362.5c-200.069,-0 -362.5,-162.431 -362.5,-362.5c0,-200.07 162.431,-362.5 362.5,-362.5Zm0,145.833c119.582,0 216.667,97.085 216.667,216.667c0,119.581 -97.085,216.666 -216.667,216.666c-119.581,0 -216.666,-97.085 -216.666,-216.666c-0,-119.582 97.085,-216.667 216.666,-216.667Z" style="fill:#6b6b6b;"/></g><path d="M1595.83,2787.5c0,0 358.334,200 537.5,200c179.167,0 537.5,-200 537.5,-200" style="fill:none;stroke:#6b6b6b;stroke-width:145.83px;"/><circle cx="2133.33" cy="787.5" r="362.5" style="fill:#fff;"/><path d="M2133.33,425c200.07,0 362.5,162.431 362.5,362.5c0,200.069 -162.43,362.5 -362.5,362.5c-200.069,0 -362.5,-162.431 -362.5,-362.5c0,-200.069 162.431,-362.5 362.5,-362.5Zm0,145.833c119.582,0 216.667,97.085 216.667,216.667c0,119.582 -97.085,216.667 -216.667,216.667c-119.581,-0 -216.666,-97.085 -216.666,-216.667c-0,-119.582 97.085,-216.667 216.666,-216.667Z" style="fill:#6b6b6b;"/></g></svg>