<?xml version="1.0" encoding="UTF-8" standalone="no"?><!DOCTYPE svg PUBLIC "-//W3C//DTD SVG 1.1//EN" "http://www.w3.org/Graphics/SVG/1.1/DTD/svg11.dtd"><svg width="100%" height="100%" viewBox="0 0 4267 4267" version="1.1" xmlns="http://www.w3.org/2000/svg" xmlns:xlink="http://www.w3.org/1999/xlink" xml:space="preserve" xmlns:serif="http://www.serif.com/" style="fill-rule:evenodd;clip-rule:evenodd;stroke-linejoin:round;stroke-miterlimit:2;"><rect id="Star" x="0" y="0" width="4266.67" height="4266.67" style="fill:none;"/><path d="M1949.42,665.094c23.386,-82.187 98.464,-138.882 183.914,-138.882c85.451,-0 160.528,56.695 183.915,138.882l277.2,974.187l1012.17,-37.407c85.392,-3.156 162.512,50.727 188.918,131.995c26.405,81.268 -4.314,170.191 -75.253,217.83l-840.847,564.674l348.353,951.067c29.389,80.238 1.974,170.235 -67.156,220.461c-69.131,50.226 -163.195,48.489 -230.424,-4.256l-796.872,-625.2l-796.872,625.2c-67.228,52.745 -161.292,54.482 -230.423,4.256c-69.131,-50.226 -96.545,-140.223 -67.156,-220.461l348.352,-951.067l-840.846,-564.674c-70.939,-47.639 -101.659,-136.562 -75.253,-217.83c26.405,-81.268 103.526,-135.151 188.918,-131.995l1012.17,37.407l277.2,-974.187Z" style="fill:#ffcb03;"/><path d="M1809.15,625.182c-0,0 -173.36,609.252 -245.887,864.139c-0,0 -897.828,-33.181 -897.828,-33.181c-150.518,-5.563 -286.456,89.416 -333,232.664c-46.544,143.249 7.605,299.991 132.646,383.962c-0,0 745.861,500.886 745.861,500.886c0,0 -309.001,843.632 -309.001,843.632c-51.803,141.432 -3.48,300.066 118.374,388.599c121.855,88.532 287.658,85.469 406.16,-7.503c-0,-0 498.36,-390.997 706.854,-554.575c0,0 706.855,554.575 706.855,554.575c118.502,92.972 284.305,96.035 406.159,7.503c121.855,-88.533 170.178,-247.167 118.375,-388.599c-0,-0 -309.002,-843.632 -309.002,-843.632c220,-147.742 745.862,-500.886 745.862,-500.886c125.041,-83.971 179.19,-240.713 132.646,-383.962c-46.545,-143.248 -182.482,-238.227 -333,-232.664c-0,-0 -897.828,33.181 -897.828,33.181c-0,0 -245.887,-864.139 -245.887,-864.139c-41.222,-144.869 -173.559,-244.804 -324.18,-244.804c-150.62,0 -282.957,99.935 -324.179,244.804Zm140.265,39.912c23.386,-82.187 98.464,-138.882 183.914,-138.882c85.451,-0 160.528,56.695 183.915,138.882l277.2,974.187l1012.17,-37.407c85.392,-3.156 162.512,50.727 188.918,131.995c26.405,81.268 -4.314,170.191 -75.253,217.83l-840.847,564.674l348.353,951.067c29.389,80.238 1.974,170.235 -67.156,220.461c-69.131,50.226 -163.195,48.489 -230.424,-4.256l-796.872,-625.2l-796.872,625.2c-67.228,52.745 -161.292,54.482 -230.423,4.256c-69.131,-50.226 -96.545,-140.223 -67.156,-220.461l348.352,-951.067l-840.846,-564.674c-70.939,-47.639 -101.659,-136.562 -75.253,-217.83c26.405,-81.268 103.526,-135.151 188.918,-131.995l1012.17,37.407l277.2,-974.187Z" style="fill:#df8300;"/></svg>