<?xml version="1.0" encoding="UTF-8" standalone="no"?><!DOCTYPE svg PUBLIC "-//W3C//DTD SVG 1.1//EN" "http://www.w3.org/Graphics/SVG/1.1/DTD/svg11.dtd"><svg width="100%" height="100%" viewBox="0 0 4267 4267" version="1.1" xmlns="http://www.w3.org/2000/svg" xmlns:xlink="http://www.w3.org/1999/xlink" xml:space="preserve" xmlns:serif="http://www.serif.com/" style="fill-rule:evenodd;clip-rule:evenodd;stroke-linecap:round;stroke-linejoin:round;stroke-miterlimit:1.5;"><rect id="Success" x="-0" y="-0" width="4266.67" height="4266.67" style="fill:none;"/><circle cx="2133.33" cy="2133.33" r="1687.5" style="fill:#00d743;"/><path d="M2133.33,300c-1011.84,0 -1833.33,821.489 -1833.33,1833.33c-0,1011.85 821.489,1833.33 1833.33,1833.33c1011.85,-0 1833.33,-821.489 1833.33,-1833.33c-0,-1011.84 -821.489,-1833.33 -1833.33,-1833.33Zm0,145.833c931.357,0 1687.5,756.144 1687.5,1687.5c0,931.357 -756.143,1687.5 -1687.5,1687.5c-931.356,0 -1687.5,-756.143 -1687.5,-1687.5c0,-931.356 756.144,-1687.5 1687.5,-1687.5Z" style="fill:#00a666;"/><path d="M1463.37,2174.35l463.038,543.249l876.893,-1168.54" style="fill:none;stroke:#fff;stroke-width:416.67px;"/></svg>