<?xml version="1.0" encoding="UTF-8" standalone="no"?><!DOCTYPE svg PUBLIC "-//W3C//DTD SVG 1.1//EN" "http://www.w3.org/Graphics/SVG/1.1/DTD/svg11.dtd"><svg width="100%" height="100%" viewBox="0 0 1024 1024" version="1.1" xmlns="http://www.w3.org/2000/svg" xmlns:xlink="http://www.w3.org/1999/xlink" xml:space="preserve" xmlns:serif="http://www.serif.com/" style="fill-rule:evenodd;clip-rule:evenodd;stroke-linejoin:round;stroke-miterlimit:2;"><rect id="Train" x="0" y="0" width="1024" height="1024" style="fill:none;"/><path d="M216.795,583.039c0,-0 -34.339,-34.34 -57.718,-57.719c-5.626,-5.626 -8.787,-13.257 -8.787,-21.213c-0,-7.957 3.161,-15.587 8.787,-21.213l43.511,-43.511c-0,-0 -34.34,-34.339 -57.719,-57.719c-5.626,-5.626 -8.787,-13.256 -8.787,-21.213c0,-7.956 3.161,-15.587 8.787,-21.213c44.964,-44.964 149.405,-149.405 194.369,-194.369c5.626,-5.626 13.257,-8.787 21.213,-8.787c7.957,0 15.587,3.161 21.213,8.787c23.38,23.379 57.719,57.719 57.719,57.719l43.511,-43.511c5.626,-5.626 13.256,-8.787 21.213,-8.787c7.956,-0 15.587,3.161 21.213,8.787c23.379,23.379 57.719,57.718 57.719,57.718l-143.656,143.656l224.166,224.166l143.656,-143.656c-0,0 34.339,34.34 57.718,57.719c5.626,5.626 8.787,13.257 8.787,21.213c0,7.957 -3.161,15.587 -8.787,21.213l-43.511,43.511l57.719,57.719c5.626,5.626 8.787,13.256 8.787,21.213c-0,7.956 -3.161,15.587 -8.787,21.213l-57.719,57.719l57.719,57.718c11.716,11.716 11.716,30.711 0,42.427c-11.313,11.313 -25.192,25.192 -36.505,36.505c-11.716,11.716 -30.711,11.716 -42.427,0c-23.379,-23.379 -57.718,-57.719 -57.718,-57.719l75.309,-75.308l-133.028,133.027c-5.626,5.626 -13.257,8.787 -21.213,8.787c-7.957,-0 -15.587,-3.161 -21.213,-8.787l-57.719,-57.719l-43.511,43.511c-5.626,5.626 -13.256,8.787 -21.213,8.787c-7.956,0 -15.587,-3.161 -21.213,-8.787c-23.379,-23.379 -57.719,-57.718 -57.719,-57.718l143.656,-143.656l-224.166,-224.166l-143.656,143.656Zm-35.421,-438.17c11.716,-11.716 30.711,-11.716 42.427,-0c23.379,23.379 57.718,57.719 57.718,57.719l-78.931,78.931c-0,0 -34.34,-34.339 -57.719,-57.718c-11.716,-11.716 -11.716,-30.711 -0,-42.427c11.313,-11.313 25.192,-25.192 36.505,-36.505Z" style="fill:#fff;"/><path d="M281.519,153.09l-32.97,-32.97c-25.384,-25.384 -66.539,-25.384 -91.923,0l-36.506,36.506c-25.384,25.384 -25.384,66.539 0,91.923l32.97,32.97l-32.97,32.97c-12.19,12.19 -19.038,28.723 -19.038,45.962c0,17.239 6.848,33.772 19.038,45.962c0,-0 32.97,32.97 32.97,32.97c0,-0 -18.762,18.762 -18.762,18.762c-12.19,12.19 -19.038,28.723 -19.038,45.962c-0,17.239 6.848,33.772 19.038,45.962c23.379,23.379 57.719,57.718 57.719,57.718c13.668,13.669 35.829,13.669 49.497,0c-0,0 77.82,-77.819 118.907,-118.907c0,0 121.265,121.265 174.669,174.669c-0,-0 -118.907,118.907 -118.907,118.907c-13.669,13.668 -13.669,35.829 -0,49.497c-0,0 34.339,34.34 57.718,57.719c12.19,12.19 28.723,19.038 45.962,19.038c17.239,0 33.772,-6.848 45.962,-19.038c0,0 18.762,-18.762 18.762,-18.762c0,-0 32.97,32.97 32.97,32.97c12.19,12.19 28.723,19.038 45.962,19.038c17.239,-0 33.772,-6.848 45.962,-19.038l32.97,-32.97l32.97,32.97c25.384,25.384 66.539,25.384 91.923,-0c11.313,-11.313 25.193,-25.193 36.506,-36.506c25.384,-25.384 25.384,-66.539 -0,-91.923c-0,-0 -32.97,-32.97 -32.97,-32.97c-0,-0 32.97,-32.97 32.97,-32.97c12.19,-12.19 19.038,-28.723 19.038,-45.962c-0,-17.239 -6.848,-33.772 -19.038,-45.962c-0,0 -32.97,-32.97 -32.97,-32.97c-0,0 18.762,-18.762 18.762,-18.762c12.19,-12.19 19.038,-28.723 19.038,-45.962c0,-17.239 -6.848,-33.772 -19.038,-45.962c-23.379,-23.379 -57.719,-57.718 -57.719,-57.718c-13.668,-13.669 -35.829,-13.669 -49.497,-0l-118.907,118.907c-43.123,-43.124 -131.545,-131.546 -174.669,-174.669c0,0 118.907,-118.907 118.907,-118.907c13.669,-13.668 13.669,-35.829 0,-49.497c0,-0 -34.339,-34.34 -57.718,-57.719c-12.19,-12.19 -28.723,-19.038 -45.962,-19.038c-17.239,-0 -33.772,6.848 -45.962,19.038c-0,-0 -18.762,18.762 -18.762,18.762c-0,0 -32.97,-32.97 -32.97,-32.97c-12.19,-12.19 -28.723,-19.038 -45.962,-19.038c-17.239,0 -33.772,6.848 -45.962,19.038l-32.97,32.97Zm-64.724,429.949c0,-0 -34.339,-34.34 -57.718,-57.719c-5.626,-5.626 -8.787,-13.257 -8.787,-21.213c-0,-7.957 3.161,-15.587 8.787,-21.213l43.511,-43.511c-0,-0 -34.34,-34.339 -57.719,-57.719c-5.626,-5.626 -8.787,-13.256 -8.787,-21.213c0,-7.956 3.161,-15.587 8.787,-21.213c44.964,-44.964 149.405,-149.405 194.369,-194.369c5.626,-5.626 13.257,-8.787 21.213,-8.787c7.957,0 15.587,3.161 21.213,8.787c23.38,23.379 57.719,57.719 57.719,57.719l43.511,-43.511c5.626,-5.626 13.256,-8.787 21.213,-8.787c7.956,-0 15.587,3.161 21.213,8.787c23.379,23.379 57.719,57.718 57.719,57.718l-143.656,143.656l224.166,224.166l143.656,-143.656c-0,0 34.339,34.34 57.718,57.719c5.626,5.626 8.787,13.257 8.787,21.213c0,7.957 -3.161,15.587 -8.787,21.213l-43.511,43.511l57.719,57.719c5.626,5.626 8.787,13.256 8.787,21.213c-0,7.956 -3.161,15.587 -8.787,21.213l-57.719,57.719l57.719,57.718c11.716,11.716 11.716,30.711 0,42.427c-11.313,11.313 -25.192,25.192 -36.505,36.505c-11.716,11.716 -30.711,11.716 -42.427,0c-23.379,-23.379 -57.718,-57.719 -57.718,-57.719l75.309,-75.308l-133.028,133.027c-5.626,5.626 -13.257,8.787 -21.213,8.787c-7.957,-0 -15.587,-3.161 -21.213,-8.787l-57.719,-57.719l-43.511,43.511c-5.626,5.626 -13.256,8.787 -21.213,8.787c-7.956,0 -15.587,-3.161 -21.213,-8.787c-23.379,-23.379 -57.719,-57.718 -57.719,-57.718l143.656,-143.656l-224.166,-224.166l-143.656,143.656Zm-35.421,-438.17c11.716,-11.716 30.711,-11.716 42.427,-0c23.379,23.379 57.718,57.719 57.718,57.719l-78.931,78.931c-0,0 -34.34,-34.339 -57.719,-57.718c-11.716,-11.716 -11.716,-30.711 -0,-42.427c11.313,-11.313 25.192,-25.192 36.505,-36.505Z" style="fill:#6b6b6b;"/></svg>