<?xml version="1.0" encoding="UTF-8" standalone="no"?><!DOCTYPE svg PUBLIC "-//W3C//DTD SVG 1.1//EN" "http://www.w3.org/Graphics/SVG/1.1/DTD/svg11.dtd"><svg width="100%" height="100%" viewBox="0 0 4267 4267" version="1.1" xmlns="http://www.w3.org/2000/svg" xmlns:xlink="http://www.w3.org/1999/xlink" xml:space="preserve" xmlns:serif="http://www.serif.com/" style="fill-rule:evenodd;clip-rule:evenodd;stroke-linejoin:round;stroke-miterlimit:2;"><rect id="Train" x="0" y="0" width="4266.67" height="4266.67" style="fill:none;"/><path d="M903.314,2429.33c-0,0 -143.081,-143.08 -240.494,-240.494c-23.442,-23.442 -36.612,-55.236 -36.612,-88.388c-0,-33.152 13.17,-64.946 36.612,-88.388l181.295,-181.295c-0,-0 -143.08,-143.081 -240.494,-240.494c-23.442,-23.442 -36.612,-55.237 -36.612,-88.389c0,-33.152 13.17,-64.946 36.612,-88.388c187.35,-187.35 622.52,-622.52 809.87,-809.87c23.442,-23.442 55.236,-36.612 88.388,-36.612c33.152,0 64.947,13.17 88.389,36.612c97.413,97.414 240.494,240.494 240.494,240.494l181.295,-181.295c23.442,-23.442 55.236,-36.612 88.388,-36.612c33.152,-0 64.946,13.17 88.388,36.612c97.414,97.413 240.494,240.494 240.494,240.494l-598.565,598.565l934.025,934.026l598.566,-598.566c0,0 143.08,143.08 240.494,240.494c23.442,23.442 36.612,55.237 36.612,88.389c-0,33.152 -13.17,64.946 -36.612,88.388l-181.295,181.295l240.494,240.494c23.442,23.442 36.612,55.236 36.612,88.388c-0,33.152 -13.17,64.947 -36.612,88.389c-187.35,187.35 -622.52,622.52 -809.87,809.87c-23.442,23.442 -55.237,36.612 -88.389,36.612c-33.152,-0 -64.946,-13.17 -88.388,-36.612l-240.494,-240.494l-181.295,181.295c-23.442,23.442 -55.236,36.612 -88.388,36.612c-33.152,-0 -64.947,-13.17 -88.389,-36.612c-97.414,-97.414 -240.494,-240.494 -240.494,-240.494l598.566,-598.566l-934.026,-934.025l-598.565,598.565Zm2759.73,1081.61c48.815,-48.815 48.815,-127.961 -0,-176.776c-97.414,-97.414 -240.494,-240.494 -240.494,-240.494l-328.882,328.882c-0,-0 143.08,143.08 240.494,240.494c48.815,48.815 127.961,48.815 176.776,-0c47.138,-47.138 104.968,-104.968 152.106,-152.106Zm-2907.32,-2907.32c48.816,-48.816 127.962,-48.816 176.777,-0c97.414,97.414 240.494,240.494 240.494,240.494l-328.882,328.882c-0,0 -143.08,-143.08 -240.494,-240.494c-48.816,-48.815 -48.816,-127.961 -0,-176.777c47.137,-47.137 104.968,-104.968 152.105,-152.105Z" style="fill:#fff;"/><path d="M1173,637.875l-137.374,-137.374c-105.767,-105.767 -277.249,-105.767 -383.016,-0l-152.106,152.106c-105.767,105.767 -105.767,277.249 -0,383.016l137.374,137.374l-137.374,137.374c-50.791,50.791 -79.325,119.679 -79.325,191.508c-0,71.83 28.534,140.717 79.325,191.508c0,0 137.374,137.375 137.374,137.375c0,-0 -78.175,78.175 -78.175,78.175c-50.791,50.791 -79.325,119.679 -79.325,191.508c-0,71.829 28.534,140.717 79.325,191.508c97.414,97.414 240.494,240.494 240.494,240.494c56.951,56.952 149.288,56.952 206.239,0c0,0 324.249,-324.248 495.446,-495.446c0,0 505.27,505.27 727.787,727.786c-0,0 -495.446,495.446 -495.446,495.446c-56.952,56.952 -56.952,149.288 -0,206.24c-0,-0 143.08,143.08 240.494,240.494c50.791,50.791 119.678,79.325 191.508,79.325c71.829,0 140.717,-28.534 191.508,-79.325c-0,-0 78.175,-78.176 78.175,-78.176c0,0 137.374,137.375 137.374,137.375c50.791,50.791 119.679,79.325 191.508,79.325c71.83,-0 140.717,-28.534 191.509,-79.325l137.374,-137.375l137.374,137.375c105.767,105.767 277.249,105.767 383.016,-0l152.106,-152.106c105.767,-105.767 105.767,-277.249 -0,-383.016l-137.375,-137.374l137.375,-137.375c50.791,-50.791 79.325,-119.678 79.325,-191.508c-0,-71.829 -28.534,-140.717 -79.325,-191.508c-0,0 -137.375,-137.374 -137.375,-137.374c0,0 78.176,-78.175 78.176,-78.175c50.791,-50.791 79.325,-119.679 79.325,-191.508c0,-71.83 -28.534,-140.717 -79.325,-191.508c-97.414,-97.414 -240.494,-240.494 -240.494,-240.494c-56.952,-56.952 -149.288,-56.952 -206.24,-0l-495.446,495.446c-179.68,-179.681 -548.105,-548.106 -727.786,-727.787c0,0 495.446,-495.446 495.446,-495.446c56.952,-56.951 56.952,-149.288 0,-206.239c0,-0 -143.08,-143.08 -240.494,-240.494c-50.791,-50.791 -119.679,-79.325 -191.508,-79.325c-71.829,-0 -140.717,28.534 -191.508,79.325c-0,-0 -78.175,78.175 -78.175,78.175c-0,0 -137.375,-137.374 -137.375,-137.374c-50.791,-50.791 -119.678,-79.325 -191.508,-79.325c-71.829,-0 -140.717,28.534 -191.508,79.325l-137.374,137.374Zm2490.05,2873.07c48.815,-48.815 48.815,-127.961 -0,-176.776c-97.414,-97.414 -240.494,-240.494 -240.494,-240.494l-328.882,328.882c-0,-0 143.08,143.08 240.494,240.494c48.815,48.815 127.961,48.815 176.776,-0c47.138,-47.138 104.968,-104.968 152.106,-152.106Zm-2759.73,-1081.61c-0,0 -143.081,-143.08 -240.494,-240.494c-23.442,-23.442 -36.612,-55.236 -36.612,-88.388c-0,-33.152 13.17,-64.946 36.612,-88.388l181.295,-181.295c-0,-0 -143.08,-143.081 -240.494,-240.494c-23.442,-23.442 -36.612,-55.237 -36.612,-88.389c0,-33.152 13.17,-64.946 36.612,-88.388c187.35,-187.35 622.52,-622.52 809.87,-809.87c23.442,-23.442 55.236,-36.612 88.388,-36.612c33.152,0 64.947,13.17 88.389,36.612c97.413,97.414 240.494,240.494 240.494,240.494l181.295,-181.295c23.442,-23.442 55.236,-36.612 88.388,-36.612c33.152,-0 64.946,13.17 88.388,36.612c97.414,97.413 240.494,240.494 240.494,240.494l-598.565,598.565l934.025,934.026l598.566,-598.566c0,0 143.08,143.08 240.494,240.494c23.442,23.442 36.612,55.237 36.612,88.389c-0,33.152 -13.17,64.946 -36.612,88.388l-181.295,181.295l240.494,240.494c23.442,23.442 36.612,55.236 36.612,88.388c-0,33.152 -13.17,64.947 -36.612,88.389c-187.35,187.35 -622.52,622.52 -809.87,809.87c-23.442,23.442 -55.237,36.612 -88.389,36.612c-33.152,-0 -64.946,-13.17 -88.388,-36.612l-240.494,-240.494l-181.295,181.295c-23.442,23.442 -55.236,36.612 -88.388,36.612c-33.152,-0 -64.947,-13.17 -88.389,-36.612c-97.414,-97.414 -240.494,-240.494 -240.494,-240.494l598.566,-598.566l-934.026,-934.025l-598.565,598.565Zm-147.588,-1825.71c48.816,-48.816 127.962,-48.816 176.777,-0c97.414,97.414 240.494,240.494 240.494,240.494l-328.882,328.882c-0,0 -143.08,-143.08 -240.494,-240.494c-48.816,-48.815 -48.816,-127.961 -0,-176.777c47.137,-47.137 104.968,-104.968 152.105,-152.105Z" style="fill:#6b6b6b;"/></svg>