<?xml version="1.0" encoding="UTF-8" standalone="no"?><!DOCTYPE svg PUBLIC "-//W3C//DTD SVG 1.1//EN" "http://www.w3.org/Graphics/SVG/1.1/DTD/svg11.dtd"><svg width="100%" height="100%" viewBox="0 0 4267 4267" version="1.1" xmlns="http://www.w3.org/2000/svg" xmlns:xlink="http://www.w3.org/1999/xlink" xml:space="preserve" xmlns:serif="http://www.serif.com/" style="fill-rule:evenodd;clip-rule:evenodd;stroke-linejoin:round;stroke-miterlimit:2;"><rect id="Trash" x="0" y="0" width="4266.67" height="4266.67" style="fill:none;"/><g><ellipse cx="2136.25" cy="771.802" rx="1355.02" ry="278.52" style="fill:#e57b7a;"/><path d="M2136.25,347.449c-547.058,-0 -1021.63,67.387 -1257.41,160.828c-82.733,32.788 -141.919,71.505 -177.598,108.826c-47.041,49.206 -65.845,102.678 -65.845,154.699c0,52.022 18.804,105.494 65.845,154.699c35.679,37.321 94.865,76.038 177.598,108.826c235.774,93.442 710.35,160.829 1257.41,160.829c547.058,-0 1021.63,-67.387 1257.41,-160.829c82.733,-32.788 141.919,-71.505 177.598,-108.826c47.041,-49.205 65.845,-102.677 65.845,-154.699c-0,-52.021 -18.804,-105.493 -65.845,-154.699c-35.679,-37.321 -94.865,-76.038 -177.598,-108.826c-235.774,-93.441 -710.351,-160.828 -1257.41,-160.828Zm0,145.833c747.855,0 1355.02,124.801 1355.02,278.52c0,153.72 -607.163,278.521 -1355.02,278.521c-747.854,-0 -1355.02,-124.801 -1355.02,-278.521c-0,-153.719 607.163,-278.52 1355.02,-278.52Z" style="fill:#a22b31;"/><path d="M782.74,784.754c32.968,147.732 626.817,265.569 1353.51,265.569c726.691,-0 1320.54,-117.837 1353.51,-265.569l-323.141,2770.52c0,153.72 -461.692,278.521 -1030.37,278.521c-568.674,-0 -1030.37,-124.801 -1030.37,-278.521l-323.141,-2770.52Zm-1.51,-12.952l-0,0c-0,0 -0,0 -0,0Zm2710.03,0c0,0 0,0 0,0Z" style="fill:#ffc8ba;"/><path d="M3355.16,728.661c-8.292,5.4 -26.287,16.744 -41.35,23.708c-38.04,17.588 -86.252,33.697 -142.885,48.739c-239.23,63.541 -613.937,103.381 -1034.68,103.381c-420.744,0 -795.451,-39.84 -1034.68,-103.381c-56.633,-15.042 -104.845,-31.151 -142.886,-48.739c-15.062,-6.964 -33.057,-18.308 -41.349,-23.708c-25.571,-61.641 -90.979,-99.208 -158.952,-87.691c-76.521,12.965 -129.481,83.59 -120.49,160.679l322.467,2764.74c4.595,83.542 61.501,177.514 193.203,246.156c184.363,96.088 554.918,167.08 982.688,167.08c427.771,0 798.326,-70.992 982.689,-167.08c131.69,-68.635 188.597,-162.597 193.205,-246.185c-0.002,0.029 322.465,-2764.71 322.465,-2764.71c8.991,-77.089 -43.969,-147.714 -120.49,-160.679c-67.973,-11.517 -133.381,26.05 -158.952,87.691Zm-2393,335.648c253.586,78.199 684.813,131.847 1174.08,131.847c489.266,-0 920.493,-53.648 1174.08,-131.847l-287.299,2463.22c-16.606,10.734 -63.376,39.727 -105.769,55.355c-176.118,64.928 -460.621,105.072 -781.012,105.072c-320.39,0 -604.893,-40.144 -781.011,-105.072c-42.393,-15.628 -89.164,-44.621 -105.769,-55.355l-287.299,-2463.22Z" style="fill:#a22b31;"/><path d="M1904.54,2279.08l-379.006,379.006c-63.942,63.942 -63.942,167.767 -0,231.709c63.942,63.942 167.767,63.942 231.709,0l379.006,-379.006l379.007,379.006c63.942,63.942 167.767,63.942 231.709,0c63.942,-63.942 63.942,-167.767 -0,-231.709l-379.006,-379.006l379.006,-379.006c63.942,-63.942 63.942,-167.768 -0,-231.71c-63.942,-63.942 -167.767,-63.942 -231.709,0l-379.007,379.006l-379.006,-379.006c-63.942,-63.942 -167.767,-63.942 -231.709,0c-63.942,63.942 -63.942,167.768 -0,231.71l379.006,379.006Z" style="fill:#fff;"/><path d="M1698.3,2279.08l-275.887,275.886c-120.855,120.855 -120.855,317.094 0,437.949c120.855,120.855 317.094,120.855 437.949,-0c-0,-0 275.886,-275.887 275.886,-275.887c0,0 275.887,275.887 275.887,275.887c120.855,120.855 317.093,120.855 437.949,-0c120.855,-120.855 120.855,-317.094 -0,-437.949c-0,0 -275.887,-275.886 -275.887,-275.886c0,-0 275.887,-275.887 275.887,-275.887c120.855,-120.855 120.855,-317.093 -0,-437.948c-120.856,-120.856 -317.094,-120.856 -437.949,-0c-0,-0 -275.887,275.886 -275.887,275.886c0,0 -275.886,-275.886 -275.886,-275.886c-120.855,-120.856 -317.094,-120.856 -437.949,-0c-120.855,120.855 -120.855,317.093 0,437.948l275.887,275.887Zm206.239,-0l-379.006,379.006c-63.942,63.942 -63.942,167.767 -0,231.709c63.942,63.942 167.767,63.942 231.709,0l379.006,-379.006l379.007,379.006c63.942,63.942 167.767,63.942 231.709,0c63.942,-63.942 63.942,-167.767 -0,-231.709l-379.006,-379.006l379.006,-379.006c63.942,-63.942 63.942,-167.768 -0,-231.71c-63.942,-63.942 -167.767,-63.942 -231.709,0l-379.007,379.006l-379.006,-379.006c-63.942,-63.942 -167.767,-63.942 -231.709,0c-63.942,63.942 -63.942,167.768 -0,231.71l379.006,379.006Z" style="fill:#a22b31;"/></g></svg>