<?xml version="1.0" encoding="UTF-8" standalone="no"?><!DOCTYPE svg PUBLIC "-//W3C//DTD SVG 1.1//EN" "http://www.w3.org/Graphics/SVG/1.1/DTD/svg11.dtd"><svg width="100%" height="100%" viewBox="0 0 1024 1024" version="1.1" xmlns="http://www.w3.org/2000/svg" xmlns:xlink="http://www.w3.org/1999/xlink" xml:space="preserve" xmlns:serif="http://www.serif.com/" style="fill-rule:evenodd;clip-rule:evenodd;stroke-linejoin:round;stroke-miterlimit:2;"><path id="path5" d="M951,239.699c-32.302,14.329 -67.022,24.009 -103.455,28.364c37.188,-22.293 65.754,-57.593 79.2,-99.658c-34.808,20.646 -73.357,35.634 -114.39,43.711c-32.855,-35.01 -79.67,-56.881 -131.481,-56.881c-99.477,0 -180.135,80.649 -180.135,180.126c-0,14.119 1.593,27.868 4.666,41.051c-149.708,-7.511 -282.435,-79.226 -371.28,-188.208c-15.506,26.603 -24.391,57.544 -24.391,90.557c0,62.496 31.801,117.63 80.135,149.932c-29.527,-0.935 -57.302,-9.039 -81.588,-22.529c-0.02,0.75 -0.02,1.505 -0.02,2.265c-0,87.273 62.092,160.073 144.497,176.632c-15.115,4.118 -31.029,6.317 -47.456,6.317c-11.608,-0 -22.89,-1.133 -33.891,-3.231c22.924,71.561 89.446,123.64 168.273,125.089c-61.649,48.316 -139.317,77.115 -223.715,77.115c-14.539,-0 -28.877,-0.856 -42.969,-2.52c79.718,51.113 174.402,80.934 276.127,80.934c331.327,-0 512.516,-274.476 512.516,-512.52c-0,-7.81 -0.176,-15.576 -0.523,-23.307c35.191,-25.392 65.728,-57.114 89.877,-93.239l0.003,-0Z" style="fill:#01a9f2;fill-rule:nonzero;"/></svg>