<?xml version="1.0" encoding="UTF-8" standalone="no"?><!DOCTYPE svg PUBLIC "-//W3C//DTD SVG 1.1//EN" "http://www.w3.org/Graphics/SVG/1.1/DTD/svg11.dtd"><svg width="100%" height="100%" viewBox="0 0 4267 4267" version="1.1" xmlns="http://www.w3.org/2000/svg" xmlns:xlink="http://www.w3.org/1999/xlink" xml:space="preserve" xmlns:serif="http://www.serif.com/" style="fill-rule:evenodd;clip-rule:evenodd;stroke-linejoin:round;stroke-miterlimit:2;"><rect id="Twitter" x="0" y="0" width="4266.67" height="4266.67" style="fill:none;"/><g id="Twitter1" serif:id="Twitter"><path id="path5" d="M3962.5,998.745c-134.59,59.704 -279.259,100.037 -431.062,118.183c154.949,-92.886 273.973,-239.969 330,-415.24c-145.035,86.026 -305.654,148.474 -476.626,182.13c-136.896,-145.876 -331.958,-237.005 -547.837,-237.005c-414.489,-0 -750.563,336.037 -750.563,750.527c0,58.826 6.64,116.115 19.444,171.045c-623.783,-31.297 -1176.81,-330.11 -1547,-784.201c-64.606,110.847 -101.629,239.767 -101.629,377.321c0,260.4 132.506,490.126 333.897,624.716c-123.03,-3.896 -238.761,-37.663 -339.951,-93.873c-0.085,3.128 -0.085,6.274 -0.085,9.438c-0,363.639 258.718,666.971 602.071,735.967c-62.978,17.158 -129.286,26.322 -197.734,26.322c-48.363,-0 -95.372,-4.72 -141.211,-13.463c95.519,298.173 372.693,515.167 701.139,521.203c-256.871,201.319 -580.487,321.313 -932.145,321.313c-60.582,-0 -120.323,-3.567 -179.039,-10.5c332.159,212.97 726.674,337.226 1150.53,337.226c1380.53,-0 2135.48,-1143.65 2135.48,-2135.5c-0,-32.541 -0.732,-64.899 -2.177,-97.11c146.626,-105.8 273.863,-237.976 374.486,-388.498l0.012,0Z" style="fill:#01a9f2;fill-rule:nonzero;"/></g></svg>