<?xml version="1.0" encoding="UTF-8" standalone="no"?><!DOCTYPE svg PUBLIC "-//W3C//DTD SVG 1.1//EN" "http://www.w3.org/Graphics/SVG/1.1/DTD/svg11.dtd"><svg width="100%" height="100%" viewBox="0 0 4267 4267" version="1.1" xmlns="http://www.w3.org/2000/svg" xmlns:xlink="http://www.w3.org/1999/xlink" xml:space="preserve" xmlns:serif="http://www.serif.com/" style="fill-rule:evenodd;clip-rule:evenodd;stroke-linecap:round;stroke-linejoin:round;stroke-miterlimit:1.5;"><rect id="Warning" x="0" y="-0" width="4266.67" height="4266.67" style="fill:none;"/><path d="M1952.26,726.709c37.041,-65.1 106.176,-105.306 181.075,-105.306c74.9,-0 144.035,40.206 181.075,105.306c353.792,621.802 1132.81,1990.95 1483.43,2607.19c36.692,64.488 36.318,143.624 -0.982,207.762c-37.301,64.138 -105.897,103.599 -180.093,103.599c-704.425,-0 -2262.44,-0 -2966.87,-0c-74.196,-0 -142.793,-39.461 -180.093,-103.599c-37.3,-64.138 -37.674,-143.274 -0.982,-207.762c350.626,-616.24 1129.64,-1985.39 1483.43,-2607.19Z" style="fill:#ffb900;"/><path d="M1825.51,654.59l-1483.43,2607.19c-62.377,109.63 -61.741,244.161 1.669,353.196c63.41,109.035 180.025,176.118 306.158,176.118c704.425,0 2262.44,0 2966.87,0c126.133,-0 242.747,-67.083 306.158,-176.118c63.41,-109.035 64.046,-243.566 1.669,-353.195c-350.626,-616.24 -1129.64,-1985.39 -1483.43,-2607.19c-62.969,-110.67 -180.498,-179.02 -307.828,-179.02c-127.329,-0 -244.859,68.35 -307.827,179.02l0,-0Zm126.752,72.119c37.041,-65.1 106.176,-105.306 181.075,-105.306c74.9,-0 144.035,40.206 181.075,105.306c353.792,621.802 1132.81,1990.95 1483.43,2607.19c36.692,64.488 36.318,143.624 -0.982,207.762c-37.301,64.138 -105.897,103.599 -180.093,103.599c-704.425,-0 -2262.44,-0 -2966.87,-0c-74.196,-0 -142.793,-39.461 -180.093,-103.599c-37.3,-64.138 -37.674,-143.274 -0.982,-207.762c350.626,-616.24 1129.64,-1985.39 1483.43,-2607.19Z" style="fill:#cb7b00;"/><g><path d="M2133.33,1593.69l0,916.979" style="fill:none;stroke:#fff;stroke-width:416.67px;"/><path d="M2133.33,3047.43l0,30.349" style="fill:none;stroke:#fff;stroke-width:416.67px;"/></g></svg>